<svg xmlns="http://www.w3.org/2000/svg" width="521" height="521" fill="none" viewBox="0 0 521 521"><g id="AnimatedCircle"><g id="1"><g id="2"><g id="3"><g id="4"><g id="5"><g id="visual"><g id="group"><g id=".lineStates"><rect id="rect" width="315.656" height="3.758" fill="url(#paint0_linear_115_352)" fill-opacity=".5" transform="matrix(-0.707106 0.707107 -0.707106 -0.707107 508.948 184.774)"/></g><g id=".lineStates_2"><rect id="rect_2" width="315.656" height="3.758" x="514.603" y="206.716" fill="url(#paint1_linear_115_352)" fill-opacity=".5" transform="rotate(140 514.603 206.716)"/></g><g id=".lineStates_3"><rect id="rect_3" width="315.656" height="3.758" x="501.402" y="163.41" fill="url(#paint2_linear_115_352)" fill-opacity=".5" transform="rotate(130 501.402 163.41)"/></g><g id=".lineStates_4"><rect id="rect_4" width="315.656" height="3.758" fill="url(#paint3_linear_115_352)" fill-opacity=".5" transform="matrix(-0.819152 0.573577 -0.573576 -0.819152 518.314 229.058)"/></g><g id=".lineStates_5"><rect id="rect_5" width="315.656" height="3.758" fill="url(#paint4_linear_115_352)" fill-opacity=".5" transform="matrix(-0.573578 0.819151 -0.819153 -0.573575 492.014 142.774)"/></g><g id=".lineStates_6"><rect id="rect_6" width="315.656" height="3.758" x="480.882" y="123.053" fill="url(#paint5_linear_115_352)" fill-opacity=".5" transform="rotate(120 480.882 123.053)"/></g><g id=".lineStates_7"><rect id="rect_7" width="315.656" height="3.758" x="520.083" y="251.658" fill="url(#paint6_linear_115_352)" fill-opacity=".5" transform="rotate(150 520.083 251.658)"/></g><g id=".lineStates_8"><rect id="rect_8" width="315.656" height="3.758" x="468.064" y="104.369" fill="url(#paint7_linear_115_352)" fill-opacity=".5" transform="rotate(115 468.064 104.369)"/></g><g id=".lineStates_9"><rect id="rect_9" width="315.656" height="3.758" x="519.866" y="274.315" fill="url(#paint8_linear_115_352)" fill-opacity=".5" transform="rotate(155 519.866 274.315)"/></g><g id=".lineStates_10"><rect id="rect_10" width="315.656" height="3.758" x="453.666" y="86.872" fill="url(#paint9_linear_115_352)" fill-opacity=".5" transform="rotate(110 453.666 86.8723)"/></g><g id=".lineStates_11"><rect id="rect_11" width="315.656" height="3.758" x="517.675" y="296.868" fill="url(#paint10_linear_115_352)" fill-opacity=".5" transform="rotate(160 517.675 296.868)"/></g><g id=".lineStates_12"><rect id="rect_12" width="315.656" height="3.758" x="513.518" y="319.134" fill="url(#paint11_linear_115_352)" fill-opacity=".5" transform="rotate(165 513.518 319.134)"/></g><g id=".lineStates_13"><rect id="rect_13" width="315.656" height="3.758" x="437.788" y="70.689" fill="url(#paint12_linear_115_352)" fill-opacity=".5" transform="rotate(105 437.788 70.6887)"/></g><g id=".lineStates_14"><rect id="rect_14" width="315.656" height="3.758" x="507.454" y="340.973" fill="url(#paint13_linear_115_352)" fill-opacity=".5" transform="rotate(170 507.454 340.973)"/></g><g id=".lineStates_15"><rect id="rect_15" width="315.656" height="3.758" x="420.58" y="55.968" fill="url(#paint14_linear_115_352)" fill-opacity=".5" transform="rotate(100 420.58 55.968)"/></g><g id=".lineStates_16"><rect id="rect_16" width="315.656" height="3.758" x="499.501" y="362.19" fill="url(#paint15_linear_115_352)" fill-opacity=".5" transform="rotate(175 499.501 362.19)"/></g><g id=".lineStates_17"><rect id="rect_17" width="315.656" height="3.758" x="402.145" y="42.795" fill="url(#paint16_linear_115_352)" fill-opacity=".5" transform="rotate(95 402.145 42.7947)"/></g><g id=".lineStates_18"><rect id="rect_18" width="315.656" height="3.758" x="489.719" y="382.623" fill="url(#paint17_linear_115_352)" fill-opacity=".5" transform="rotate(180 489.719 382.623)"/></g><g id=".lineStates_19"><rect id="rect_19" width="315.656" height="3.758" x="382.622" y="31.268" fill="url(#paint18_linear_115_352)" fill-opacity=".5" transform="rotate(90 382.622 31.2683)"/></g><g id=".lineStates_20"><rect id="rect_20" width="315.656" height="3.758" fill="url(#paint19_linear_115_352)" fill-opacity=".5" transform="matrix(-0.996195 -0.0871563 0.0871552 -0.996195 478.212 402.146)"/></g><g id=".lineStates_21"><rect id="rect_21" width="315.656" height="3.758" x="362.188" y="21.506" fill="url(#paint20_linear_115_352)" fill-opacity=".5" transform="rotate(85 362.188 21.5056)"/></g><g id=".lineStates_22"><rect id="rect_22" width="315.656" height="3.758" fill="url(#paint21_linear_115_352)" fill-opacity=".5" transform="matrix(-0.984808 -0.173649 0.173648 -0.984808 465.039 420.582)"/></g><g id=".lineStates_23"><rect id="rect_23" width="315.656" height="3.758" x="340.971" y="13.553" fill="url(#paint22_linear_115_352)" fill-opacity=".5" transform="rotate(80 340.971 13.5527)"/></g><g id=".lineStates_24"><rect id="rect_24" width="315.656" height="3.758" x="450.299" y="437.79" fill="url(#paint23_linear_115_352)" fill-opacity=".5" transform="rotate(-165 450.299 437.79)"/></g><g id=".lineStates_25"><rect id="rect_25" width="315.656" height="3.758" fill="url(#paint24_linear_115_352)" fill-opacity=".5" transform="matrix(0.258818 0.965926 -0.965926 0.25882 319.132 7.46924)"/></g><g id=".lineStates_26"><rect id="rect_26" width="315.656" height="3.758" fill="url(#paint25_linear_115_352)" fill-opacity=".5" transform="matrix(-0.939692 -0.342021 0.342019 -0.939693 434.134 453.668)"/></g><g id=".lineStates_27"><rect id="rect_27" width="315.656" height="3.758" x="296.866" y="3.331" fill="url(#paint26_linear_115_352)" fill-opacity=".5" transform="rotate(70 296.866 3.33105)"/></g><g id=".lineStates_28"><rect id="rect_28" width="315.656" height="3.758" x="416.638" y="468.065" fill="url(#paint27_linear_115_352)" fill-opacity=".5" transform="rotate(-155 416.638 468.065)"/></g><g id=".lineStates_29"><rect id="rect_29" width="315.656" height="3.758" x="274.313" y="1.14" fill="url(#paint28_linear_115_352)" fill-opacity=".5" transform="rotate(65 274.313 1.14038)"/></g><g id=".lineStates_30"><rect id="rect_30" width="315.656" height="3.758" fill="url(#paint29_linear_115_352)" fill-opacity=".5" transform="matrix(-0.866025 -0.500001 0.499999 -0.866026 397.954 480.884)"/></g><g id=".lineStates_31"><rect id="rect_31" width="315.656" height="3.758" fill="url(#paint30_linear_115_352)" fill-opacity=".5" transform="matrix(0.500001 0.866025 -0.866026 0.499999 251.655 0.923828)"/></g><g id=".lineStates_32"><rect id="rect_32" width="315.656" height="3.758" fill="url(#paint31_linear_115_352)" fill-opacity=".5" transform="matrix(-0.819152 -0.573576 0.573577 -0.819152 378.214 492.015)"/></g><g id=".lineStates_33"><rect id="rect_33" width="315.656" height="3.758" fill="url(#paint32_linear_115_352)" fill-opacity=".5" transform="matrix(0.573575 0.819153 -0.819151 0.573578 229.056 2.67334)"/></g><g id=".lineStates_34"><rect id="rect_34" width="315.656" height="3.758" fill="url(#paint33_linear_115_352)" fill-opacity=".5" transform="matrix(0.642786 0.766046 -0.766043 0.642789 206.714 6.40308)"/></g><g id=".lineStates_35"><rect id="rect_35" width="315.656" height="3.758" x="357.597" y="501.404" fill="url(#paint34_linear_115_352)" fill-opacity=".5" transform="rotate(-140 357.597 501.404)"/></g><g id=".lineStates_36"><rect id="rect_36" width="315.656" height="3.758" x="336.232" y="508.95" fill="url(#paint35_linear_115_352)" fill-opacity=".5" transform="rotate(-135 336.232 508.95)"/></g><g id=".lineStates_37"><rect id="rect_37" width="315.656" height="3.758" fill="url(#paint36_linear_115_352)" fill-opacity=".5" transform="matrix(0.707106 0.707108 -0.707106 0.707108 184.773 12.0583)"/></g><g id=".lineStates_38"><rect id="rect_38" width="315.656" height="3.758" x="163.407" y="19.605" fill="url(#paint37_linear_115_352)" fill-opacity=".5" transform="rotate(40 163.407 19.6045)"/></g><g id=".lineStates_39"><rect id="rect_39" width="315.656" height="3.758" x="314.29" y="514.604" fill="url(#paint38_linear_115_352)" fill-opacity=".5" transform="rotate(-130 314.29 514.604)"/></g><g id=".lineStates_40"><rect id="rect_40" width="315.656" height="3.758" fill="url(#paint39_linear_115_352)" fill-opacity=".5" transform="matrix(-0.573577 -0.819152 0.819152 -0.573576 291.93 518.316)"/></g><g id=".lineStates_41"><rect id="rect_41" width="315.656" height="3.758" fill="url(#paint40_linear_115_352)" fill-opacity=".5" transform="matrix(0.819151 0.573578 -0.573575 0.819153 142.772 28.9739)"/></g><g id=".lineStates_42"><rect id="rect_42" width="315.656" height="3.758" fill="url(#paint41_linear_115_352)" fill-opacity=".5" transform="matrix(-0.499999 -0.866026 0.866025 -0.500001 269.349 520.084)"/></g><g id=".lineStates_43"><rect id="rect_43" width="315.656" height="3.758" fill="url(#paint42_linear_115_352)" fill-opacity=".5" transform="matrix(0.866026 0.499999 -0.500001 0.866025 123.05 40.1248)"/></g><g id=".lineStates_44"><rect id="rect_44" width="315.656" height="3.758" x="246.691" y="519.868" fill="url(#paint43_linear_115_352)" fill-opacity=".5" transform="rotate(-115 246.691 519.868)"/></g><g id=".lineStates_45"><rect id="rect_45" width="315.656" height="3.758" x="104.366" y="52.942" fill="url(#paint44_linear_115_352)" fill-opacity=".5" transform="rotate(25 104.366 52.9424)"/></g><g id=".lineStates_46"><rect id="rect_46" width="315.656" height="3.758" x="224.139" y="517.676" fill="url(#paint45_linear_115_352)" fill-opacity=".5" transform="rotate(-110 224.139 517.676)"/></g><g id=".lineStates_47"><rect id="rect_47" width="315.656" height="3.758" x="86.87" y="67.341" fill="url(#paint46_linear_115_352)" fill-opacity=".5" transform="rotate(20 86.8699 67.3406)"/></g><g id=".lineStates_48"><rect id="rect_48" width="315.656" height="3.758" x="201.854" y="513.52" fill="url(#paint47_linear_115_352)" fill-opacity=".5" transform="rotate(-105 201.854 513.52)"/></g><g id=".lineStates_49"><rect id="rect_49" width="315.656" height="3.758" fill="url(#paint48_linear_115_352)" fill-opacity=".5" transform="matrix(0.965926 0.25882 -0.258818 0.965926 70.686 83.1992)"/></g><g id=".lineStates_50"><rect id="rect_50" width="315.656" height="3.758" x="55.965" y="100.427" fill="url(#paint49_linear_115_352)" fill-opacity=".5" transform="rotate(10 55.9654 100.427)"/></g><g id=".lineStates_51"><rect id="rect_51" width="315.656" height="3.758" fill="url(#paint50_linear_115_352)" fill-opacity=".5" transform="matrix(-0.173648 -0.984808 0.984808 -0.173649 180.033 507.456)"/></g><g id=".lineStates_52"><rect id="rect_52" width="315.656" height="3.758" fill="url(#paint51_linear_115_352)" fill-opacity=".5" transform="matrix(-0.0871552 -0.996195 0.996195 -0.0871563 158.816 499.502)"/></g><g id=".lineStates_53"><rect id="rect_53" width="315.656" height="3.758" x="42.792" y="118.862" fill="url(#paint52_linear_115_352)" fill-opacity=".5" transform="rotate(5 42.7918 118.862)"/></g><g id=".lineStates_54"><rect id="rect_54" width="315.656" height="3.758" x="138.364" y="489.721" fill="url(#paint53_linear_115_352)" fill-opacity=".5" transform="rotate(-90 138.364 489.721)"/></g><g id=".lineStates_55"><rect id="rect_55" width="315.656" height="3.758" x="31.266" y="138.366" fill="url(#paint54_linear_115_352)" fill-opacity=".5"/></g><g id=".lineStates_56"><rect id="rect_56" width="315.656" height="3.758" x="118.859" y="478.214" fill="url(#paint55_linear_115_352)" fill-opacity=".5" transform="rotate(-85 118.859 478.214)"/></g><g id=".lineStates_57"><rect id="rect_57" width="315.656" height="3.758" x="21.503" y="158.818" fill="url(#paint56_linear_115_352)" fill-opacity=".5" transform="rotate(-5 21.5033 158.818)"/></g><g id=".lineStates_58"><rect id="rect_58" width="315.656" height="3.758" x="100.424" y="465.04" fill="url(#paint57_linear_115_352)" fill-opacity=".5" transform="rotate(-80 100.424 465.04)"/></g><g id=".lineStates_59"><rect id="rect_59" width="315.656" height="3.758" x="13.55" y="180.035" fill="url(#paint58_linear_115_352)" fill-opacity=".5" transform="rotate(-10 13.5503 180.035)"/></g><g id=".lineStates_60"><rect id="rect_60" width="315.656" height="3.758" x="83.197" y="450.301" fill="url(#paint59_linear_115_352)" fill-opacity=".5" transform="rotate(-75 83.197 450.301)"/></g><g id=".lineStates_61"><rect id="rect_61" width="315.656" height="3.758" x="7.467" y="201.855" fill="url(#paint60_linear_115_352)" fill-opacity=".5" transform="rotate(-15 7.4673 201.855)"/></g><g id=".lineStates_62"><rect id="rect_62" width="315.656" height="3.758" x="3.329" y="224.14" fill="url(#paint61_linear_115_352)" fill-opacity=".5" transform="rotate(-20 3.32922 224.14)"/></g><g id=".lineStates_63"><rect id="rect_63" width="315.656" height="3.758" x="67.338" y="434.135" fill="url(#paint62_linear_115_352)" fill-opacity=".5" transform="rotate(-70 67.3382 434.135)"/></g><g id=".lineStates_64"><rect id="rect_64" width="315.656" height="3.758" x="1.138" y="246.693" fill="url(#paint63_linear_115_352)" fill-opacity=".5" transform="rotate(-25 1.13835 246.693)"/></g><g id=".lineStates_65"><rect id="rect_65" width="315.656" height="3.758" x="52.94" y="416.64" fill="url(#paint64_linear_115_352)" fill-opacity=".5" transform="rotate(-65 52.9401 416.64)"/></g><g id=".lineStates_66"><rect id="rect_66" width="315.656" height="3.758" x=".922" y="269.351" fill="url(#paint65_linear_115_352)" fill-opacity=".5" transform="rotate(-30 0.921532 269.351)"/></g><g id=".lineStates_67"><rect id="rect_67" width="315.656" height="3.758" fill="url(#paint66_linear_115_352)" fill-opacity=".5" transform="matrix(0.499999 -0.866026 0.866025 0.500001 40.1219 397.956)"/></g><g id=".lineStates_68"><rect id="rect_68" width="315.656" height="3.758" fill="url(#paint67_linear_115_352)" fill-opacity=".5" transform="matrix(0.573576 -0.819152 0.819152 0.573577 28.9718 378.216)"/></g><g id=".lineStates_69"><rect id="rect_69" width="315.656" height="3.758" fill="url(#paint68_linear_115_352)" fill-opacity=".5" transform="matrix(0.819152 -0.573577 0.573576 0.819152 2.67095 291.932)"/></g><g id=".lineStates_70"><rect id="rect_70" width="315.656" height="3.758" fill="url(#paint69_linear_115_352)" fill-opacity=".5" transform="matrix(0.642788 -0.766044 0.766045 0.642787 19.6016 357.599)"/></g><g id=".lineStates_71"><rect id="rect_71" width="315.656" height="3.758" fill="url(#paint70_linear_115_352)" fill-opacity=".5" transform="matrix(0.766045 -0.642787 0.642788 0.766044 6.40087 314.292)"/></g><g id=".lineStates_72"><rect id="rect_72" width="315.656" height="3.758" fill="url(#paint71_linear_115_352)" fill-opacity=".5" transform="matrix(0.707108 -0.707106 0.707108 0.707106 12.0554 336.233)"/></g></g></g></g></g></g></g></g></g><defs><linearGradient id="paint0_linear_115_352" x1="315.656" x2="0" y1="0" y2="0" gradientUnits="userSpaceOnUse"><stop stop-color="#0EA730"/><stop offset="1" stop-color="#fff" stop-opacity="0"/></linearGradient><linearGradient id="paint1_linear_115_352" x1="830.259" x2="514.603" y1="206.716" y2="206.716" gradientUnits="userSpaceOnUse"><stop stop-color="#0EA730"/><stop offset="1" stop-color="#fff" stop-opacity="0"/></linearGradient><linearGradient id="paint2_linear_115_352" x1="817.059" x2="501.402" y1="163.41" y2="163.41" gradientUnits="userSpaceOnUse"><stop stop-color="#0EA730"/><stop offset="1" stop-color="#fff" stop-opacity="0"/></linearGradient><linearGradient id="paint3_linear_115_352" x1="315.656" x2="0" y1="0" y2="0" gradientUnits="userSpaceOnUse"><stop stop-color="#0EA730"/><stop offset="1" stop-color="#fff" stop-opacity="0"/></linearGradient><linearGradient id="paint4_linear_115_352" x1="315.656" x2="0" y1="0" y2="0" gradientUnits="userSpaceOnUse"><stop stop-color="#0EA730"/><stop offset="1" stop-color="#fff" stop-opacity="0"/></linearGradient><linearGradient id="paint5_linear_115_352" x1="796.539" x2="480.882" y1="123.053" y2="123.053" gradientUnits="userSpaceOnUse"><stop stop-color="#0EA730"/><stop offset="1" stop-color="#fff" stop-opacity="0"/></linearGradient><linearGradient id="paint6_linear_115_352" x1="835.739" x2="520.083" y1="251.658" y2="251.658" gradientUnits="userSpaceOnUse"><stop stop-color="#0EA730"/><stop offset="1" stop-color="#fff" stop-opacity="0"/></linearGradient><linearGradient id="paint7_linear_115_352" x1="783.72" x2="468.064" y1="104.369" y2="104.369" gradientUnits="userSpaceOnUse"><stop stop-color="#0EA730"/><stop offset="1" stop-color="#fff" stop-opacity="0"/></linearGradient><linearGradient id="paint8_linear_115_352" x1="835.522" x2="519.866" y1="274.315" y2="274.315" gradientUnits="userSpaceOnUse"><stop stop-color="#0EA730"/><stop offset="1" stop-color="#fff" stop-opacity="0"/></linearGradient><linearGradient id="paint9_linear_115_352" x1="769.322" x2="453.666" y1="86.872" y2="86.872" gradientUnits="userSpaceOnUse"><stop stop-color="#0EA730"/><stop offset="1" stop-color="#fff" stop-opacity="0"/></linearGradient><linearGradient id="paint10_linear_115_352" x1="833.331" x2="517.675" y1="296.868" y2="296.868" gradientUnits="userSpaceOnUse"><stop stop-color="#0EA730"/><stop offset="1" stop-color="#fff" stop-opacity="0"/></linearGradient><linearGradient id="paint11_linear_115_352" x1="829.174" x2="513.518" y1="319.134" y2="319.134" gradientUnits="userSpaceOnUse"><stop stop-color="#0EA730"/><stop offset="1" stop-color="#fff" stop-opacity="0"/></linearGradient><linearGradient id="paint12_linear_115_352" x1="753.445" x2="437.788" y1="70.689" y2="70.689" gradientUnits="userSpaceOnUse"><stop stop-color="#0EA730"/><stop offset="1" stop-color="#fff" stop-opacity="0"/></linearGradient><linearGradient id="paint13_linear_115_352" x1="823.11" x2="507.454" y1="340.973" y2="340.973" gradientUnits="userSpaceOnUse"><stop stop-color="#0EA730"/><stop offset="1" stop-color="#fff" stop-opacity="0"/></linearGradient><linearGradient id="paint14_linear_115_352" x1="736.236" x2="420.58" y1="55.968" y2="55.968" gradientUnits="userSpaceOnUse"><stop stop-color="#0EA730"/><stop offset="1" stop-color="#fff" stop-opacity="0"/></linearGradient><linearGradient id="paint15_linear_115_352" x1="815.157" x2="499.501" y1="362.19" y2="362.19" gradientUnits="userSpaceOnUse"><stop stop-color="#0EA730"/><stop offset="1" stop-color="#fff" stop-opacity="0"/></linearGradient><linearGradient id="paint16_linear_115_352" x1="717.801" x2="402.145" y1="42.795" y2="42.795" gradientUnits="userSpaceOnUse"><stop stop-color="#0EA730"/><stop offset="1" stop-color="#fff" stop-opacity="0"/></linearGradient><linearGradient id="paint17_linear_115_352" x1="805.376" x2="489.719" y1="382.623" y2="382.623" gradientUnits="userSpaceOnUse"><stop stop-color="#0EA730"/><stop offset="1" stop-color="#fff" stop-opacity="0"/></linearGradient><linearGradient id="paint18_linear_115_352" x1="698.278" x2="382.622" y1="31.268" y2="31.268" gradientUnits="userSpaceOnUse"><stop stop-color="#0EA730"/><stop offset="1" stop-color="#fff" stop-opacity="0"/></linearGradient><linearGradient id="paint19_linear_115_352" x1="315.656" x2="0" y1="0" y2="0" gradientUnits="userSpaceOnUse"><stop stop-color="#0EA730"/><stop offset="1" stop-color="#fff" stop-opacity="0"/></linearGradient><linearGradient id="paint20_linear_115_352" x1="677.844" x2="362.188" y1="21.506" y2="21.506" gradientUnits="userSpaceOnUse"><stop stop-color="#0EA730"/><stop offset="1" stop-color="#fff" stop-opacity="0"/></linearGradient><linearGradient id="paint21_linear_115_352" x1="315.656" x2="0" y1="0" y2="0" gradientUnits="userSpaceOnUse"><stop stop-color="#0EA730"/><stop offset="1" stop-color="#fff" stop-opacity="0"/></linearGradient><linearGradient id="paint22_linear_115_352" x1="656.627" x2="340.971" y1="13.553" y2="13.553" gradientUnits="userSpaceOnUse"><stop stop-color="#0EA730"/><stop offset="1" stop-color="#fff" stop-opacity="0"/></linearGradient><linearGradient id="paint23_linear_115_352" x1="765.956" x2="450.299" y1="437.79" y2="437.79" gradientUnits="userSpaceOnUse"><stop stop-color="#0EA730"/><stop offset="1" stop-color="#fff" stop-opacity="0"/></linearGradient><linearGradient id="paint24_linear_115_352" x1="315.656" x2="0" y1="0" y2="0" gradientUnits="userSpaceOnUse"><stop stop-color="#0EA730"/><stop offset="1" stop-color="#fff" stop-opacity="0"/></linearGradient><linearGradient id="paint25_linear_115_352" x1="315.656" x2="0" y1="0" y2="0" gradientUnits="userSpaceOnUse"><stop stop-color="#0EA730"/><stop offset="1" stop-color="#fff" stop-opacity="0"/></linearGradient><linearGradient id="paint26_linear_115_352" x1="612.522" x2="296.866" y1="3.331" y2="3.331" gradientUnits="userSpaceOnUse"><stop stop-color="#0EA730"/><stop offset="1" stop-color="#fff" stop-opacity="0"/></linearGradient><linearGradient id="paint27_linear_115_352" x1="732.294" x2="416.638" y1="468.065" y2="468.065" gradientUnits="userSpaceOnUse"><stop stop-color="#0EA730"/><stop offset="1" stop-color="#fff" stop-opacity="0"/></linearGradient><linearGradient id="paint28_linear_115_352" x1="589.969" x2="274.313" y1="1.14" y2="1.14" gradientUnits="userSpaceOnUse"><stop stop-color="#0EA730"/><stop offset="1" stop-color="#fff" stop-opacity="0"/></linearGradient><linearGradient id="paint29_linear_115_352" x1="315.656" x2="0" y1="0" y2="0" gradientUnits="userSpaceOnUse"><stop stop-color="#0EA730"/><stop offset="1" stop-color="#fff" stop-opacity="0"/></linearGradient><linearGradient id="paint30_linear_115_352" x1="315.656" x2="0" y1="0" y2="0" gradientUnits="userSpaceOnUse"><stop stop-color="#0EA730"/><stop offset="1" stop-color="#fff" stop-opacity="0"/></linearGradient><linearGradient id="paint31_linear_115_352" x1="315.656" x2="0" y1="0" y2="0" gradientUnits="userSpaceOnUse"><stop stop-color="#0EA730"/><stop offset="1" stop-color="#fff" stop-opacity="0"/></linearGradient><linearGradient id="paint32_linear_115_352" x1="315.656" x2="0" y1="0" y2="0" gradientUnits="userSpaceOnUse"><stop stop-color="#0EA730"/><stop offset="1" stop-color="#fff" stop-opacity="0"/></linearGradient><linearGradient id="paint33_linear_115_352" x1="315.656" x2="0" y1="0" y2="0" gradientUnits="userSpaceOnUse"><stop stop-color="#0EA730"/><stop offset="1" stop-color="#fff" stop-opacity="0"/></linearGradient><linearGradient id="paint34_linear_115_352" x1="673.253" x2="357.597" y1="501.404" y2="501.404" gradientUnits="userSpaceOnUse"><stop stop-color="#0EA730"/><stop offset="1" stop-color="#fff" stop-opacity="0"/></linearGradient><linearGradient id="paint35_linear_115_352" x1="651.888" x2="336.232" y1="508.95" y2="508.95" gradientUnits="userSpaceOnUse"><stop stop-color="#0EA730"/><stop offset="1" stop-color="#fff" stop-opacity="0"/></linearGradient><linearGradient id="paint36_linear_115_352" x1="315.656" x2="0" y1="0" y2="0" gradientUnits="userSpaceOnUse"><stop stop-color="#0EA730"/><stop offset="1" stop-color="#fff" stop-opacity="0"/></linearGradient><linearGradient id="paint37_linear_115_352" x1="479.064" x2="163.407" y1="19.605" y2="19.605" gradientUnits="userSpaceOnUse"><stop stop-color="#0EA730"/><stop offset="1" stop-color="#fff" stop-opacity="0"/></linearGradient><linearGradient id="paint38_linear_115_352" x1="629.946" x2="314.29" y1="514.604" y2="514.604" gradientUnits="userSpaceOnUse"><stop stop-color="#0EA730"/><stop offset="1" stop-color="#fff" stop-opacity="0"/></linearGradient><linearGradient id="paint39_linear_115_352" x1="315.656" x2="0" y1="0" y2="0" gradientUnits="userSpaceOnUse"><stop stop-color="#0EA730"/><stop offset="1" stop-color="#fff" stop-opacity="0"/></linearGradient><linearGradient id="paint40_linear_115_352" x1="315.656" x2="0" y1="0" y2="0" gradientUnits="userSpaceOnUse"><stop stop-color="#0EA730"/><stop offset="1" stop-color="#fff" stop-opacity="0"/></linearGradient><linearGradient id="paint41_linear_115_352" x1="315.656" x2="0" y1="0" y2="0" gradientUnits="userSpaceOnUse"><stop stop-color="#0EA730"/><stop offset="1" stop-color="#fff" stop-opacity="0"/></linearGradient><linearGradient id="paint42_linear_115_352" x1="315.656" x2="0" y1="0" y2="0" gradientUnits="userSpaceOnUse"><stop stop-color="#0EA730"/><stop offset="1" stop-color="#fff" stop-opacity="0"/></linearGradient><linearGradient id="paint43_linear_115_352" x1="562.347" x2="246.691" y1="519.868" y2="519.868" gradientUnits="userSpaceOnUse"><stop stop-color="#0EA730"/><stop offset="1" stop-color="#fff" stop-opacity="0"/></linearGradient><linearGradient id="paint44_linear_115_352" x1="420.022" x2="104.366" y1="52.942" y2="52.942" gradientUnits="userSpaceOnUse"><stop stop-color="#0EA730"/><stop offset="1" stop-color="#fff" stop-opacity="0"/></linearGradient><linearGradient id="paint45_linear_115_352" x1="539.795" x2="224.139" y1="517.676" y2="517.676" gradientUnits="userSpaceOnUse"><stop stop-color="#0EA730"/><stop offset="1" stop-color="#fff" stop-opacity="0"/></linearGradient><linearGradient id="paint46_linear_115_352" x1="402.526" x2="86.87" y1="67.341" y2="67.341" gradientUnits="userSpaceOnUse"><stop stop-color="#0EA730"/><stop offset="1" stop-color="#fff" stop-opacity="0"/></linearGradient><linearGradient id="paint47_linear_115_352" x1="517.51" x2="201.854" y1="513.52" y2="513.52" gradientUnits="userSpaceOnUse"><stop stop-color="#0EA730"/><stop offset="1" stop-color="#fff" stop-opacity="0"/></linearGradient><linearGradient id="paint48_linear_115_352" x1="315.656" x2="0" y1="0" y2="0" gradientUnits="userSpaceOnUse"><stop stop-color="#0EA730"/><stop offset="1" stop-color="#fff" stop-opacity="0"/></linearGradient><linearGradient id="paint49_linear_115_352" x1="371.622" x2="55.965" y1="100.427" y2="100.427" gradientUnits="userSpaceOnUse"><stop stop-color="#0EA730"/><stop offset="1" stop-color="#fff" stop-opacity="0"/></linearGradient><linearGradient id="paint50_linear_115_352" x1="315.656" x2="0" y1="0" y2="0" gradientUnits="userSpaceOnUse"><stop stop-color="#0EA730"/><stop offset="1" stop-color="#fff" stop-opacity="0"/></linearGradient><linearGradient id="paint51_linear_115_352" x1="315.656" x2="0" y1="0" y2="0" gradientUnits="userSpaceOnUse"><stop stop-color="#0EA730"/><stop offset="1" stop-color="#fff" stop-opacity="0"/></linearGradient><linearGradient id="paint52_linear_115_352" x1="358.448" x2="42.792" y1="118.862" y2="118.862" gradientUnits="userSpaceOnUse"><stop stop-color="#0EA730"/><stop offset="1" stop-color="#fff" stop-opacity="0"/></linearGradient><linearGradient id="paint53_linear_115_352" x1="454.02" x2="138.364" y1="489.721" y2="489.721" gradientUnits="userSpaceOnUse"><stop stop-color="#0EA730"/><stop offset="1" stop-color="#fff" stop-opacity="0"/></linearGradient><linearGradient id="paint54_linear_115_352" x1="346.922" x2="31.266" y1="138.366" y2="138.366" gradientUnits="userSpaceOnUse"><stop stop-color="#0EA730"/><stop offset="1" stop-color="#fff" stop-opacity="0"/></linearGradient><linearGradient id="paint55_linear_115_352" x1="434.516" x2="118.859" y1="478.214" y2="478.214" gradientUnits="userSpaceOnUse"><stop stop-color="#0EA730"/><stop offset="1" stop-color="#fff" stop-opacity="0"/></linearGradient><linearGradient id="paint56_linear_115_352" x1="337.16" x2="21.503" y1="158.818" y2="158.818" gradientUnits="userSpaceOnUse"><stop stop-color="#0EA730"/><stop offset="1" stop-color="#fff" stop-opacity="0"/></linearGradient><linearGradient id="paint57_linear_115_352" x1="416.08" x2="100.424" y1="465.04" y2="465.04" gradientUnits="userSpaceOnUse"><stop stop-color="#0EA730"/><stop offset="1" stop-color="#fff" stop-opacity="0"/></linearGradient><linearGradient id="paint58_linear_115_352" x1="329.207" x2="13.55" y1="180.035" y2="180.035" gradientUnits="userSpaceOnUse"><stop stop-color="#0EA730"/><stop offset="1" stop-color="#fff" stop-opacity="0"/></linearGradient><linearGradient id="paint59_linear_115_352" x1="398.853" x2="83.197" y1="450.301" y2="450.301" gradientUnits="userSpaceOnUse"><stop stop-color="#0EA730"/><stop offset="1" stop-color="#fff" stop-opacity="0"/></linearGradient><linearGradient id="paint60_linear_115_352" x1="323.124" x2="7.467" y1="201.855" y2="201.855" gradientUnits="userSpaceOnUse"><stop stop-color="#0EA730"/><stop offset="1" stop-color="#fff" stop-opacity="0"/></linearGradient><linearGradient id="paint61_linear_115_352" x1="318.985" x2="3.329" y1="224.14" y2="224.14" gradientUnits="userSpaceOnUse"><stop stop-color="#0EA730"/><stop offset="1" stop-color="#fff" stop-opacity="0"/></linearGradient><linearGradient id="paint62_linear_115_352" x1="382.994" x2="67.338" y1="434.135" y2="434.135" gradientUnits="userSpaceOnUse"><stop stop-color="#0EA730"/><stop offset="1" stop-color="#fff" stop-opacity="0"/></linearGradient><linearGradient id="paint63_linear_115_352" x1="316.795" x2="1.138" y1="246.693" y2="246.693" gradientUnits="userSpaceOnUse"><stop stop-color="#0EA730"/><stop offset="1" stop-color="#fff" stop-opacity="0"/></linearGradient><linearGradient id="paint64_linear_115_352" x1="368.596" x2="52.94" y1="416.64" y2="416.64" gradientUnits="userSpaceOnUse"><stop stop-color="#0EA730"/><stop offset="1" stop-color="#fff" stop-opacity="0"/></linearGradient><linearGradient id="paint65_linear_115_352" x1="316.578" x2=".922" y1="269.351" y2="269.351" gradientUnits="userSpaceOnUse"><stop stop-color="#0EA730"/><stop offset="1" stop-color="#fff" stop-opacity="0"/></linearGradient><linearGradient id="paint66_linear_115_352" x1="315.656" x2="0" y1="0" y2="0" gradientUnits="userSpaceOnUse"><stop stop-color="#0EA730"/><stop offset="1" stop-color="#fff" stop-opacity="0"/></linearGradient><linearGradient id="paint67_linear_115_352" x1="315.656" x2="0" y1="0" y2="0" gradientUnits="userSpaceOnUse"><stop stop-color="#0EA730"/><stop offset="1" stop-color="#fff" stop-opacity="0"/></linearGradient><linearGradient id="paint68_linear_115_352" x1="315.656" x2="0" y1="0" y2="0" gradientUnits="userSpaceOnUse"><stop stop-color="#0EA730"/><stop offset="1" stop-color="#fff" stop-opacity="0"/></linearGradient><linearGradient id="paint69_linear_115_352" x1="315.656" x2="0" y1="0" y2="0" gradientUnits="userSpaceOnUse"><stop stop-color="#0EA730"/><stop offset="1" stop-color="#fff" stop-opacity="0"/></linearGradient><linearGradient id="paint70_linear_115_352" x1="315.656" x2="0" y1="0" y2="0" gradientUnits="userSpaceOnUse"><stop stop-color="#0EA730"/><stop offset="1" stop-color="#fff" stop-opacity="0"/></linearGradient><linearGradient id="paint71_linear_115_352" x1="315.656" x2="0" y1="0" y2="0" gradientUnits="userSpaceOnUse"><stop stop-color="#0EA730"/><stop offset="1" stop-color="#fff" stop-opacity="0"/></linearGradient></defs></svg>