<svg xmlns="http://www.w3.org/2000/svg" x="0" y="0" fill="none" viewBox="0 0 320 56"><defs><clipPath xmlns="http://www.w3.org/2000/svg" id="clip14_1_116"><rect width="32" height="32" fill="#fff" transform="translate(188, 12)"/></clipPath></defs><g xmlns="http://www.w3.org/2000/svg" id="Frame 14447" data-node-id="1:799"><g id="Frame 14444" data-node-id="1:800"><circle id="Ellipse 201" cx="28" cy="28" r="27" fill="#7BDA73" stroke="#0EA730" stroke-width="2" data-node-id="1:801"/><g id="ant-design:instagram-filled" data-node-id="1:802"><path id="Vector_140" fill="#0EA730" d="M28,23.83c-2.29,0 -4.17,1.88 -4.17,4.17c0,2.29 1.88,4.17 4.17,4.17c2.29,0 4.17,-1.88 4.17,-4.17c0,-2.29 -1.88,-4.17 -4.17,-4.17zM40.49,28c0,-1.72 0.02,-3.43 -0.08,-5.16c-0.09,-2 -0.55,-3.77 -2.01,-5.23c-1.47,-1.47 -3.24,-1.92 -5.24,-2.02c-1.73,-0.1 -3.43,-0.08 -5.16,-0.08c-1.72,0 -3.43,-0.02 -5.15,0.08c-2,0.1 -3.78,0.55 -5.24,2.02c-1.47,1.46 -1.92,3.23 -2.02,5.23c-0.09,1.73 -0.08,3.44 -0.08,5.16c0,1.72 -0.01,3.43 0.08,5.16c0.1,2 0.56,3.77 2.02,5.23c1.47,1.47 3.24,1.92 5.24,2.02c1.72,0.1 3.43,0.08 5.15,0.08c1.73,0 3.44,0.02 5.16,-0.08c2,-0.1 3.77,-0.55 5.24,-2.02c1.46,-1.46 1.92,-3.23 2.01,-5.23c0.1,-1.73 0.08,-3.43 0.08,-5.16zM28,34.41c-3.55,0 -6.41,-2.86 -6.41,-6.41c0,-3.55 2.86,-6.41 6.41,-6.41c3.55,0 6.41,2.86 6.41,6.41c0,3.55 -2.86,6.41 -6.41,6.41zM34.67,22.83c-0.83,0 -1.49,-0.67 -1.49,-1.5c0,-0.83 0.66,-1.5 1.49,-1.5c0.83,0 1.5,0.67 1.5,1.5c0,0.19 -0.04,0.39 -0.11,0.57c-0.08,0.18 -0.19,0.35 -0.33,0.49c-0.14,0.14 -0.3,0.25 -0.48,0.32c-0.19,0.08 -0.38,0.12 -0.58,0.12z" data-node-id="1:803"/></g></g><g id="Frame 14443" data-node-id="1:804"><circle id="Ellipse 202" cx="116" cy="28" r="27" fill="#7BDA73" stroke="#0EA730" stroke-width="2" data-node-id="1:805"/><g id="akar-icons:twitter-fill" data-node-id="1:806"><path id="Vector_141" fill="#0EA730" d="M131.52,18.58c-1.11,0.5 -2.31,0.83 -3.56,0.98c1.29,-0.78 2.27,-2 2.73,-3.44c-1.22,0.73 -2.55,1.24 -3.95,1.51c-0.93,-1 -2.17,-1.66 -3.52,-1.88c-1.35,-0.23 -2.74,0 -3.94,0.65c-1.21,0.64 -2.17,1.67 -2.73,2.92c-0.57,1.25 -0.7,2.64 -0.39,3.98c-2.47,-0.13 -4.89,-0.77 -7.09,-1.89c-2.21,-1.12 -4.15,-2.69 -5.71,-4.6c-0.54,0.92 -0.84,1.98 -0.84,3.12c0,1.02 0.25,2.03 0.73,2.93c0.48,0.9 1.18,1.67 2.03,2.24c-0.99,-0.03 -1.95,-0.3 -2.81,-0.78v0.08c0,1.44 0.49,2.83 1.4,3.94c0.91,1.11 2.17,1.87 3.58,2.15c-0.92,0.25 -1.87,0.29 -2.81,0.11c0.4,1.23 1.17,2.31 2.21,3.09c1.04,0.77 2.3,1.2 3.6,1.22c-2.2,1.73 -4.92,2.66 -7.72,2.66c-0.49,0 -0.99,-0.03 -1.48,-0.09c2.84,1.83 6.14,2.8 9.52,2.79c11.43,0 17.67,-9.46 17.67,-17.67c0,-0.26 0,-0.53 -0.02,-0.8c1.22,-0.88 2.27,-1.97 3.1,-3.21z" data-node-id="1:807"/></g></g><g id="Frame 14445" data-node-id="1:808"><circle id="Ellipse 203" cx="204" cy="28" r="27" fill="#7BDA73" stroke="#0EA730" stroke-width="2" data-node-id="1:809"/><g id="cib:facebook-f" clip-path="url(#clip14_1_116)" data-node-id="1:810"><path id="Vector_142" fill="#0EA730" d="M211.45,30l0.88,-5.79h-5.55v-3.76c0,-1.58 0.77,-3.13 3.26,-3.13h2.53v-4.93c0,0 -2.29,-0.39 -4.49,-0.39c-4.57,0 -7.56,2.77 -7.56,7.8v4.41h-5.09v5.79h5.09v14h6.26v-14z" data-node-id="1:811"/></g></g><g id="Frame 14446" data-node-id="1:812"><circle id="Ellipse 204" cx="292" cy="28" r="27" fill="#7BDA73" stroke="#0EA730" stroke-width="2" data-node-id="1:813"/><g id="akar-icons:linkedin-box-fill" data-node-id="1:814"><path id="Vector_143" fill="#0EA730" fill-rule="evenodd" d="M277.33,15.78c0,-0.65 0.26,-1.27 0.72,-1.73c0.46,-0.46 1.08,-0.72 1.73,-0.72h24.43c0.33,0 0.64,0.07 0.94,0.19c0.3,0.12 0.57,0.3 0.8,0.53c0.23,0.23 0.41,0.5 0.53,0.8c0.12,0.29 0.19,0.61 0.19,0.93v24.43c0,0.33 -0.07,0.64 -0.19,0.94c-0.12,0.3 -0.3,0.57 -0.53,0.8c-0.23,0.23 -0.5,0.41 -0.8,0.53c-0.29,0.12 -0.61,0.19 -0.94,0.19h-24.43c-0.32,0 -0.64,-0.07 -0.93,-0.19c-0.3,-0.12 -0.57,-0.3 -0.8,-0.53c-0.23,-0.23 -0.41,-0.5 -0.53,-0.8c-0.12,-0.29 -0.19,-0.61 -0.19,-0.94zM288.94,24.52h3.98v1.99c0.57,-1.14 2.04,-2.18 4.24,-2.18c4.23,0 5.23,2.29 5.23,6.48v7.76h-4.28v-6.81c0,-2.38 -0.57,-3.73 -2.03,-3.73c-2.02,0 -2.86,1.45 -2.86,3.73v6.81h-4.28zM281.61,38.39h4.28v-14.06h-4.28v14.06zM286.5,19.75c0.01,0.37 -0.06,0.73 -0.19,1.07c-0.14,0.34 -0.34,0.65 -0.59,0.91c-0.26,0.27 -0.57,0.47 -0.9,0.62c-0.34,0.14 -0.7,0.21 -1.07,0.21c-0.37,0 -0.73,-0.07 -1.07,-0.21c-0.33,-0.15 -0.64,-0.35 -0.9,-0.62c-0.25,-0.26 -0.45,-0.57 -0.59,-0.91c-0.13,-0.34 -0.2,-0.7 -0.19,-1.07c0.02,-0.72 0.31,-1.4 0.83,-1.91c0.51,-0.5 1.2,-0.78 1.92,-0.78c0.72,0 1.41,0.28 1.92,0.78c0.52,0.51 0.81,1.19 0.83,1.91z" clip-rule="evenodd" data-node-id="1:815"/></g></g></g></svg>