<svg xmlns="http://www.w3.org/2000/svg" x="0" y="0" fill="none" viewBox="0 0 1200.133 72.584"><defs><clipPath xmlns="http://www.w3.org/2000/svg" id="clip1_1_116"><rect width="200" height="32.5" fill="#fff" transform="translate(-0.36700000000000443, 19.716099999999983)"/></clipPath><clipPath xmlns="http://www.w3.org/2000/svg" id="clip2_1_116"><rect width="200" height="36.928" fill="#fff" transform="translate(317.633, 17.502099999999928)"/></clipPath><clipPath xmlns="http://www.w3.org/2000/svg" id="clip3_1_116"><rect width="140" height="36.668" fill="#fff" transform="translate(832.633, 17.632099999999923)"/></clipPath><clipPath xmlns="http://www.w3.org/2000/svg" id="clip4_1_116"><rect width="109" height="54.5" fill="#fff" transform="translate(1090.633, 8.716099999999983)"/></clipPath></defs><g xmlns="http://www.w3.org/2000/svg" id="Frame 14406" data-node-id="1:485"><g id="Quartzlogo" clip-path="url(#clip1_1_116)" data-node-id="1:486"><path id="Vector_2" fill="#7A7A7A" fill-rule="evenodd" d="M199.606,26.3841l-16.079,19.195h16.079v4.878h-22.411v-5.133l16.137,-18.94h-15.017v-4.763h21.292v4.763M166.734,21.5721v4.812h-8.967v24.073h-4.855v-24.073h-8.965v-4.812zM128.168,40.6741c1.669,-0.831 3.073,-2.11 4.055,-3.695c0.982,-1.585 1.503,-3.412 1.504,-5.276c0,-5.295 -4.348,-10.025 -9.763,-10.131h-10.65v28.885h4.856v-8.699h4.4l10.012,10.184l3.375,-3.348l-7.788,-7.92zM123.613,36.9921h-5.443v-10.578h5.443c2.96,0 5.37,2.372 5.37,5.29c0,2.919 -2.41,5.288 -5.37,5.288zM91.774,21.5721h-5.83l-11.085,28.885h5.089l2.077,-5.628h13.672l2.075,5.628h5.09zM83.874,40.3271l4.99,-13.038l4.981,13.038zM65.458,21.5721v18.274c0,6.195 -5.012,11.233 -11.181,11.233c-6.168,0 -11.187,-5.04 -11.187,-11.233v-18.274h4.852v18.274c-0.107,3.567 2.782,6.468 6.337,6.468c3.546,0 6.435,-2.901 6.365,-6.468v-18.274zM27.725,44.9211c1.908,-2.597 2.935,-5.737 2.93,-8.959c0,-8.344 -6.768,-15.14 -15.077,-15.14c-8.316,0 -15.078,6.796 -15.078,15.14c0,8.351 6.762,15.14 15.078,15.14c3.267,0 6.299,-1.048 8.771,-2.834l3.78,3.794l3.355,-3.365zM24.314,41.4961l-5.571,-5.594l-3.351,3.371l5.542,5.563c-1.612,0.984 -3.465,1.504 -5.355,1.502c-5.701,0 -10.335,-4.651 -10.335,-10.375c0,-5.717 4.634,-10.375 10.335,-10.375c5.691,0 10.331,4.656 10.331,10.375c0.002,1.958 -0.551,3.877 -1.596,5.534z" clip-rule="evenodd" data-node-id="I1:486;20:515"/></g><g id="New_Bloomberg_Logo" clip-path="url(#clip2_1_116)" data-node-id="1:487"><g id="Group" data-node-id="I1:487;20:517"><path id="Vector_3" fill="#7A7A7A" d="M317.633,17.5021h14.663c2.792,0 4.887,0.698 6.439,1.862c1.706,1.396 2.637,3.413 2.637,5.896c0,2.87 -1.163,4.654 -3.491,5.741v0.155c3.103,1.008 4.888,3.801 4.888,7.137c0,3.181 -1.242,5.663 -3.259,7.215c-1.706,1.241 -3.879,1.784 -6.827,1.784h-15.05zM330.822,29.1391c1.551,0 2.715,-0.854 2.715,-2.638c0,-1.707 -1.164,-2.56 -2.793,-2.56h-5.043v5.12h5.121zM331.52,40.6981c1.784,0 3.103,-1.086 3.103,-3.026c0,-2.094 -1.397,-3.025 -3.103,-3.025h-5.741v6.129h5.741z" data-node-id="I1:487;20:518"/><path id="Vector_4" fill="#7A7A7A" d="M344.088,17.5021h7.68v29.868h-7.68z" data-node-id="I1:487;20:519"/><path id="Vector_5" fill="#7A7A7A" d="M353.32,36.7411c0,-6.749 4.344,-11.249 11.093,-11.249c6.75,0 11.017,4.578 11.017,11.249c0,6.75 -4.267,11.249 -11.017,11.249c-6.749,0 -11.093,-4.499 -11.093,-11.249zM367.749,36.7411c0,-3.723 -1.163,-6.051 -3.491,-6.051c-2.327,0 -3.413,2.328 -3.413,6.051c0,3.724 1.086,6.129 3.413,6.129c2.328,-0.077 3.491,-2.405 3.491,-6.129z" data-node-id="I1:487;20:520"/><path id="Vector_6" fill="#7A7A7A" d="M376.283,36.7411c0,-6.749 4.345,-11.249 11.094,-11.249c6.749,0 10.939,4.5 10.939,11.249c0,6.75 -4.267,11.249 -11.017,11.249c-6.671,0 -11.016,-4.499 -11.016,-11.249zM390.713,36.7411c0,-3.723 -1.164,-6.051 -3.491,-6.051c-2.328,0 -3.414,2.328 -3.414,6.051c0,3.724 1.086,6.129 3.414,6.129c2.327,-0.077 3.491,-2.405 3.491,-6.129z" data-node-id="I1:487;20:521"/><path id="Vector_7" fill="#7A7A7A" d="M399.867,26.0351h7.138v3.181h0.155c1.396,-2.482 3.336,-3.801 6.439,-3.801c2.715,0 4.732,1.319 5.741,3.646h0.155c1.707,-2.793 3.956,-3.646 6.594,-3.646c4.965,0 7.06,3.646 7.06,8.534v13.343h-7.448v-12.025c0,-2.172 -0.698,-3.568 -2.56,-3.568c-1.862,0 -2.793,1.706 -2.793,4.034v11.559h-7.447v-12.025c0,-2.172 -0.699,-3.568 -2.56,-3.568c-1.862,0 -2.793,1.706 -2.793,4.034v11.559h-7.681z" data-node-id="I1:487;20:522"/><path id="Vector_8" fill="#7A7A7A" d="M442.536,44.4991h-0.078v2.793h-7.137v-29.79h7.448v10.706h0.155c1.396,-1.862 3.336,-2.871 6.051,-2.871c5.353,0 8.456,4.81 8.456,11.249c0,7.215 -3.336,11.404 -8.921,11.404c-2.328,0 -4.733,-1.086 -5.974,-3.491zM449.751,36.5091c0,-3.414 -1.241,-5.664 -3.491,-5.664c-2.328,0 -3.724,2.25 -3.724,5.664c0,3.413 1.474,5.663 3.724,5.663c2.25,0 3.491,-2.172 3.491,-5.663z" data-node-id="I1:487;20:523"/><path id="Vector_9" fill="#7A7A7A" d="M458.285,36.6641c0,-6.672 4.422,-11.249 10.783,-11.249c3.181,0 5.586,1.008 7.448,2.793c2.482,2.405 3.569,6.128 3.491,10.473h-14.275c0.311,2.638 1.552,4.034 3.802,4.034c1.319,0 2.482,-0.621 2.948,-2.017h7.215c-1.242,4.887 -5.043,7.292 -10.396,7.292c-6.594,-0.077 -11.016,-4.577 -11.016,-11.326zM465.732,34.4141h6.827c-0.155,-2.56 -1.551,-3.879 -3.336,-3.879c-2.094,-0.078 -3.258,1.396 -3.491,3.879z" data-node-id="I1:487;20:524"/><path id="Vector_10" fill="#7A7A7A" d="M488.463,29.6821h0.155c1.552,-2.948 3.569,-4.112 6.129,-4.112c0.621,0 1.009,0.078 1.241,0.233v6.516h-0.155c-4.422,-0.775 -6.982,1.319 -6.982,6.129v8.922h-7.525v-21.335h7.137z" data-node-id="I1:487;20:525"/><path id="Vector_11" fill="#7A7A7A" d="M496.764,47.3701h7.215c0.31,0.931 1.241,1.784 3.026,1.784c2.405,0 3.258,-1.474 3.258,-3.724v-1.551h-0.155c-1.164,1.396 -2.793,2.405 -5.12,2.405c-4.578,0 -8.612,-3.414 -8.612,-10.086c0,-6.128 3.259,-10.861 8.224,-10.861c2.87,0 4.577,1.164 5.741,2.948h0.155v-2.327h7.137v18.464c0,3.413 -1.164,6.051 -2.948,7.603c-1.862,1.629 -4.5,2.327 -7.525,2.327c-5.741,0.078 -9.698,-2.25 -10.396,-6.982zM510.573,35.8881c0,-2.638 -1.241,-4.81 -3.413,-4.81c-2.095,0 -3.414,1.862 -3.414,4.81c0,2.871 1.319,4.888 3.414,4.888c2.094,0 3.413,-2.095 3.413,-4.888z" data-node-id="I1:487;20:526"/></g></g><g id="cnbc africa" data-node-id="1:488"><path id="Vector_12" fill="#7A7A7A" d="M711.871,32.4771c-1.995,-3.92 -6.794,-5.478 -10.713,-3.483c-0.309,0.157 -0.602,0.334 -0.883,0.523l-21.022,14.539h25.524c1.214,0 2.457,-0.276 3.613,-0.865c3.918,-2.001 5.479,-6.794 3.481,-10.714z" data-node-id="I1:488;21:559"/><path id="Vector_13" stroke="#fff" stroke-miterlimit="3.864" stroke-width="2.298" d="M711.871,32.4771c-1.995,-3.92 -6.794,-5.478 -10.713,-3.483c-0.309,0.157 -0.602,0.334 -0.883,0.523l-21.022,14.539h25.524c1.214,0 2.457,-0.276 3.613,-0.865c3.918,-2.001 5.479,-6.794 3.481,-10.714z" data-node-id="I1:488;21:560"/><path id="Vector_14" fill="#7A7A7A" d="M691.456,15.9621l-11.021,25.35l22.715,-15.715c0.489,-0.339 0.948,-0.744 1.365,-1.201c2.91,-3.232 2.648,-8.209 -0.583,-11.117c-3.229,-2.913 -8.208,-2.649 -11.117,0.582c-0.577,0.643 -1.028,1.353 -1.359,2.101z" data-node-id="I1:488;21:561"/><path id="Vector_15" stroke="#fff" stroke-miterlimit="3.864" stroke-width="2.298" d="M691.456,15.9621l-11.021,25.35l22.715,-15.715c0.489,-0.339 0.948,-0.744 1.365,-1.201c2.91,-3.232 2.648,-8.209 -0.583,-11.117c-3.229,-2.913 -8.208,-2.649 -11.117,0.582c-0.577,0.643 -1.028,1.353 -1.359,2.101z" data-node-id="I1:488;21:562"/><path id="Vector_16" fill="#7A7A7A" d="M691.402,12.2251c0.301,-0.709 0.503,-1.472 0.587,-2.277c0.461,-4.375 -2.716,-8.295 -7.09,-8.755c-4.375,-0.459 -8.295,2.716 -8.754,7.091c-0.045,0.437 -0.058,0.873 -0.031,1.303h-0.009c0,0.132 0.058,0.194 0.207,0.194c0.147,0 1.915,0 2.116,0c0.432,0 1.078,0.127 1.078,0.468c0,0.26 -1.149,0.504 -1.858,1.186c-0.747,0.717 -1.086,1.998 -0.907,3.231v-0.007l3.539,23.835z" data-node-id="I1:488;21:563"/><path id="Vector_17" stroke="#fff" stroke-miterlimit="3.864" stroke-width="2.298" d="M691.402,12.2251c0.301,-0.709 0.503,-1.472 0.587,-2.277c0.461,-4.375 -2.716,-8.295 -7.09,-8.755c-4.375,-0.459 -8.295,2.716 -8.754,7.091c-0.045,0.437 -0.058,0.873 -0.031,1.303h-0.009c0,0.132 0.058,0.194 0.207,0.194c0.147,0 1.915,0 2.116,0c0.432,0 1.078,0.127 1.078,0.468c0,0.26 -1.149,0.504 -1.858,1.186c-0.747,0.717 -1.086,1.998 -0.907,3.231v-0.007l3.539,23.835z" data-node-id="I1:488;21:564"/><path id="Vector_18" fill="#7A7A7A" d="M645.891,44.0561h25.521l-21.025,-14.539c-0.277,-0.189 -0.572,-0.366 -0.879,-0.523c-3.922,-1.995 -8.72,-0.437 -10.714,3.483c-1.998,3.92 -0.438,8.713 3.481,10.714c1.157,0.589 2.401,0.865 3.616,0.865z" data-node-id="I1:488;21:565"/><path id="Vector_19" stroke="#fff" stroke-miterlimit="3.864" stroke-width="2.298" d="M645.891,44.0561h25.521l-21.025,-14.539c-0.277,-0.189 -0.572,-0.366 -0.879,-0.523c-3.922,-1.995 -8.72,-0.437 -10.714,3.483c-1.998,3.92 -0.438,8.713 3.481,10.714c1.157,0.589 2.401,0.865 3.616,0.865z" data-node-id="I1:488;21:566"/><path id="Vector_20" fill="#7A7A7A" d="M659.209,15.9621l11.019,25.349l-22.714,-15.715c-0.489,-0.34 -0.948,-0.744 -1.362,-1.202c-2.911,-3.232 -2.649,-8.209 0.58,-11.117c3.233,-2.912 8.207,-2.648 11.119,0.582c0.577,0.645 1.031,1.355 1.358,2.103z" data-node-id="I1:488;21:567"/><path id="Vector_21" stroke="#fff" stroke-miterlimit="3.864" stroke-width="2.298" d="M659.209,15.9621l11.019,25.349l-22.714,-15.715c-0.489,-0.34 -0.948,-0.744 -1.362,-1.202c-2.911,-3.232 -2.649,-8.209 0.58,-11.117c3.233,-2.912 8.207,-2.648 11.119,0.582c0.577,0.645 1.031,1.355 1.358,2.103z" data-node-id="I1:488;21:568"/><path id="Vector_22" fill="#7A7A7A" d="M674.551,9.5871l-4.168,28.907l-11.122,-26.269c-0.3,-0.709 -0.5,-1.472 -0.584,-2.277c-0.46,-4.375 2.716,-8.295 7.089,-8.755c4.375,-0.459 8.296,2.716 8.752,7.091c0.048,0.437 0.057,0.873 0.033,1.303z" data-node-id="I1:488;21:569"/><path id="Vector_23" stroke="#fff" stroke-miterlimit="3.864" stroke-width="2.298" d="M674.551,9.5871l-4.168,28.907l-11.122,-26.269c-0.3,-0.709 -0.5,-1.472 -0.584,-2.277c-0.46,-4.375 2.716,-8.295 7.089,-8.755c4.375,-0.459 8.296,2.716 8.752,7.091c0.048,0.437 0.057,0.873 0.033,1.303z" data-node-id="I1:488;21:570"/><path id="Vector_24" fill="#7A7A7A" d="M651.007,51.2491c-0.277,-1.34 -1.376,-1.692 -2.602,-1.807c-3.966,-0.367 -4.671,2.594 -4.671,3.847c0,2.137 0.626,3.892 4.522,3.892c0.715,0 2.698,-0.722 2.698,-1.921h5.6c-0.223,3.556 -6.214,4.41 -8.826,4.41c-5.413,0 -10.044,-1.006 -9.821,-6.33c0.163,-3.804 3.758,-6.474 10.912,-6.309c3.985,0.097 7.814,1.334 7.83,4.219h-5.642" data-node-id="I1:488;21:571"/><path id="Vector_25" fill="#7A7A7A" d="M707.093,51.2491c-0.275,-1.34 -1.373,-1.692 -2.6,-1.807c-3.965,-0.367 -4.669,2.594 -4.669,3.847c0,2.137 0.624,3.892 4.519,3.892c0.717,0 2.7,-0.722 2.7,-1.921h5.598c-0.222,3.556 -6.212,4.41 -8.824,4.41c-5.412,0 -10.045,-1.006 -9.82,-6.33c0.159,-3.804 3.753,-6.474 10.906,-6.309c3.987,0.097 7.817,1.334 7.836,4.219h-5.646" data-node-id="I1:488;21:572"/><path id="Vector_26" fill="#7A7A7A" d="M657.648,47.2871h7.27l6.203,8.691h0.05v-8.691h4.659v12.065h-6.964l-6.505,-8.688h-0.05v8.688h-4.663z" data-node-id="I1:488;21:573"/><path id="Vector_27" fill="#7A7A7A" d="M682.382,56.8231h1.463c2.717,0 3.717,-0.285 3.717,-1.219c0,-1.005 -1.263,-1.342 -3.291,-1.342h-1.889zM682.382,51.9751h1.463c2.253,0 3.452,-0.177 3.452,-1.111c0,-1.005 -0.998,-1.337 -3.026,-1.337h-1.889zM677.269,47.2871h8.828c4.247,0 6.741,1.185 6.741,2.976c0,1.053 -1.045,2.359 -3.373,2.742v0.036c2.805,0.166 3.84,1.938 3.84,3c0,2.127 -2.435,3.311 -7.183,3.311h-8.853z" data-node-id="I1:488;21:574"/><path id="Vector_28" fill="#7A7A7A" d="M643.015,68.0011h3.707l-1.803,-3.662h-0.041zM643.316,61.8891h3.225l5.352,9.955h-3.267l-1.08,-2.214h-5.353l-1.122,2.214h-3.188z" data-node-id="I1:488;21:575"/><path id="Vector_29" fill="#7A7A7A" d="M653.136,61.8891h10.054v1.842h-6.912v2.3h5.991v1.697h-5.991v4.116h-3.142z" data-node-id="I1:488;21:576"/><path id="Vector_30" fill="#7A7A7A" d="M668.161,66.4031h3.457c0.722,0 1.266,-0.111 1.629,-0.338c0.361,-0.224 0.542,-0.587 0.542,-1.093c0,-0.484 -0.181,-0.838 -0.542,-1.056c-0.363,-0.218 -0.907,-0.328 -1.629,-0.328h-3.457zM665.02,61.8891h7.719c0.644,0 1.218,0.073 1.736,0.215c0.517,0.143 0.954,0.342 1.323,0.595c0.365,0.251 0.648,0.544 0.841,0.879c0.195,0.335 0.289,0.689 0.289,1.062c0,0.583 -0.177,1.093 -0.528,1.526c-0.353,0.427 -0.932,0.75 -1.732,0.976v0.029c0.387,0.073 0.71,0.187 0.963,0.348c0.255,0.156 0.46,0.337 0.622,0.548c0.16,0.208 0.276,0.437 0.351,0.682c0.073,0.247 0.122,0.495 0.147,0.746c0.014,0.156 0.028,0.344 0.04,0.557c0.015,0.212 0.039,0.43 0.071,0.655c0.037,0.218 0.087,0.431 0.161,0.633c0.075,0.196 0.185,0.366 0.33,0.507h-3.144c-0.095,-0.156 -0.165,-0.333 -0.211,-0.522c-0.049,-0.193 -0.086,-0.391 -0.122,-0.597c-0.033,-0.208 -0.058,-0.426 -0.079,-0.643c-0.019,-0.219 -0.05,-0.424 -0.091,-0.619c-0.108,-0.52 -0.332,-0.901 -0.684,-1.143c-0.346,-0.242 -0.918,-0.364 -1.705,-0.364h-3.156v3.888h-3.141z" data-node-id="I1:488;21:577"/><path id="Vector_31" fill="#7A7A7A" d="M682.635,61.8881h-3.143v9.956h3.143z" data-node-id="I1:488;21:578"/><path id="Vector_32" fill="#7A7A7A" d="M694.947,65.2441c-0.055,-0.251 -0.174,-0.478 -0.363,-0.689c-0.185,-0.212 -0.419,-0.396 -0.7,-0.555c-0.28,-0.154 -0.597,-0.279 -0.952,-0.366c-0.354,-0.088 -0.725,-0.135 -1.114,-0.135c-0.706,0 -1.308,0.098 -1.802,0.29c-0.495,0.19 -0.895,0.444 -1.203,0.766c-0.308,0.318 -0.53,0.684 -0.673,1.093c-0.138,0.408 -0.207,0.831 -0.207,1.266c0,0.418 0.069,0.824 0.207,1.221c0.143,0.396 0.365,0.75 0.673,1.063c0.308,0.315 0.708,0.57 1.203,0.76c0.494,0.19 1.096,0.288 1.802,0.288c0.961,0 1.713,-0.208 2.256,-0.617c0.538,-0.407 0.873,-0.946 0.994,-1.613h3.045c-0.079,0.621 -0.287,1.184 -0.621,1.686c-0.335,0.501 -0.776,0.933 -1.325,1.284c-0.546,0.352 -1.189,0.623 -1.924,0.814c-0.732,0.191 -1.543,0.284 -2.425,0.284c-1.107,0 -2.096,-0.134 -2.965,-0.403c-0.865,-0.27 -1.6,-0.635 -2.203,-1.102c-0.6,-0.464 -1.059,-1.014 -1.382,-1.644c-0.319,-0.633 -0.478,-1.307 -0.478,-2.022c0,-0.732 0.159,-1.423 0.478,-2.062c0.323,-0.643 0.782,-1.199 1.382,-1.675c0.603,-0.472 1.338,-0.842 2.203,-1.114c0.869,-0.268 1.858,-0.405 2.965,-0.405c0.776,0 1.515,0.08 2.226,0.237c0.707,0.16 1.34,0.389 1.893,0.693c0.555,0.301 1.013,0.674 1.373,1.122c0.36,0.447 0.588,0.958 0.683,1.534h-3.046" data-node-id="I1:488;21:579"/><path id="Vector_33" fill="#7A7A7A" d="M703.87,68.0011h3.709l-1.806,-3.662h-0.039zM704.17,61.8891h3.225l5.354,9.955h-3.268l-1.082,-2.214h-5.35l-1.123,2.214h-3.186z" data-node-id="I1:488;21:580"/><path id="Vector_34" fill="#7A7A7A" d="M711.871,32.4771c-1.995,-3.92 -6.794,-5.478 -10.713,-3.483c-0.309,0.157 -0.602,0.334 -0.883,0.523l-21.022,14.539h25.524c1.214,0 2.457,-0.276 3.613,-0.865c3.918,-2.001 5.479,-6.794 3.481,-10.714z" data-node-id="I1:488;21:581"/><path id="Vector_35" fill="#7A7A7A" d="M691.456,15.9621l-11.021,25.35l22.715,-15.715c0.489,-0.339 0.948,-0.744 1.365,-1.201c2.91,-3.232 2.648,-8.209 -0.583,-11.117c-3.229,-2.913 -8.208,-2.649 -11.117,0.582c-0.577,0.643 -1.028,1.353 -1.359,2.101z" data-node-id="I1:488;21:582"/><path id="Vector_36" fill="#7A7A7A" d="M691.402,12.2251c0.301,-0.709 0.503,-1.472 0.587,-2.277c0.461,-4.375 -2.716,-8.295 -7.09,-8.755c-4.375,-0.459 -8.295,2.716 -8.754,7.091c-0.045,0.437 -0.058,0.873 -0.031,1.303h-0.009c0,0.132 0.058,0.194 0.207,0.194c0.147,0 1.915,0 2.116,0c0.432,0 1.078,0.127 1.078,0.468c0,0.26 -1.149,0.504 -1.858,1.186c-0.747,0.717 -1.086,1.998 -0.907,3.231v-0.007l3.539,23.835z" data-node-id="I1:488;21:583"/><path id="Vector_37" fill="#7A7A7A" d="M645.891,44.0561h25.521l-21.025,-14.539c-0.277,-0.189 -0.572,-0.366 -0.879,-0.523c-3.922,-1.995 -8.72,-0.437 -10.714,3.483c-1.998,3.92 -0.438,8.713 3.481,10.714c1.157,0.589 2.401,0.865 3.616,0.865z" data-node-id="I1:488;21:584"/><path id="Vector_38" fill="#7A7A7A" d="M659.209,15.9621l11.019,25.349l-22.714,-15.715c-0.489,-0.34 -0.948,-0.744 -1.362,-1.202c-2.911,-3.232 -2.649,-8.209 0.58,-11.117c3.233,-2.912 8.207,-2.648 11.119,0.582c0.577,0.645 1.031,1.355 1.358,2.103z" data-node-id="I1:488;21:585"/><path id="Vector_39" fill="#7A7A7A" d="M674.551,9.5871l-4.168,28.907l-11.122,-26.269c-0.3,-0.709 -0.5,-1.472 -0.584,-2.277c-0.46,-4.375 2.716,-8.295 7.089,-8.755c4.375,-0.459 8.296,2.716 8.752,7.091c0.048,0.437 0.057,0.873 0.033,1.303z" data-node-id="I1:488;21:586"/></g><g id="Forbes_logo" clip-path="url(#clip3_1_116)" data-node-id="1:489"><path id="Vector_40" fill="#7A7A7A" d="M846.111,21.0481h3.067c1.868,-0.275 3.775,-0.033 5.515,0.7c2.183,1.313 3.766,3.427 4.412,5.891c0.457,1.292 0.457,1.292 1.56,0.834h0.861v-10.223h-28.866v1.803h1.184c0.514,-0.004 1.023,0.108 1.488,0.327c0.466,0.219 0.876,0.539 1.202,0.937c1.103,1.776 1.291,3.767 1.291,14.124c0,11.003 -0.242,13.693 -1.291,15.065c-0.259,0.353 -0.595,0.643 -0.981,0.848c-0.387,0.205 -0.815,0.32 -1.252,0.336c-1.641,0.296 -1.641,0.269 -1.641,0.995c-0.091,0.243 -0.091,0.511 0,0.754h18.213c0.12,-0.238 0.183,-0.501 0.183,-0.767c0,-0.266 -0.063,-0.529 -0.183,-0.767c-0.441,-0.123 -0.891,-0.212 -1.345,-0.269c-0.492,-0.058 -0.978,-0.157 -1.453,-0.296c-0.681,-0.497 -1.22,-1.162 -1.564,-1.932c-0.345,-0.769 -0.482,-1.614 -0.4,-2.453c-0.269,-1.775 -0.403,-5.031 -0.403,-7.721v-2.125h1.076c1.34,-0.041 2.68,0.104 3.981,0.43c0.623,0.385 1.154,0.903 1.554,1.517c0.4,0.614 0.659,1.309 0.76,2.034l0.242,0.834h1.641v-11.917h-1.507l-0.242,1.156c-0.102,0.743 -0.376,1.451 -0.801,2.067c-0.425,0.617 -0.989,1.125 -1.647,1.485c-0.636,0.189 -1.307,0.235 -1.964,0.134h-3.093v-2.905c0,-3.013 0.161,-9.362 0.269,-10.358zM972.013,42.3821c-1.27,-2.047 -3.25,-3.551 -5.57,-4.224c-1.77,-0.554 -3.41,-1.47 -4.81,-2.69c-0.32,-0.305 -0.55,-0.683 -0.69,-1.1c-0.14,-0.418 -0.17,-0.862 -0.09,-1.294c0,-0.849 0.34,-1.661 0.94,-2.26c0.41,-0.427 0.92,-0.735 1.49,-0.891c0.57,-0.156 1.17,-0.155 1.74,0.003c1.17,0.335 2.24,0.982 3.07,1.873c0.84,0.89 1.42,1.991 1.69,3.185c0.43,1.21 0.48,1.21 1.26,0.887l0.49,-0.188v-6.699l-0.35,-0.161c-2.65,-0.93 -5.46,-1.315 -8.26,-1.13c-2.41,0.061 -4.72,1.021 -6.46,2.69c-0.79,0.74 -1.41,1.643 -1.81,2.647c-0.41,1.004 -0.59,2.084 -0.53,3.164c0.02,1.652 0.67,3.234 1.83,4.412c1.28,1.259 2.85,2.183 4.57,2.69c4.17,1.642 5.38,2.691 5.38,4.601c0.02,0.805 -0.23,1.593 -0.72,2.233c-0.49,0.641 -1.18,1.096 -1.97,1.291c-0.94,0.206 -1.91,0.206 -2.85,0c-1.23,-0.477 -2.33,-1.241 -3.2,-2.229c-0.88,-0.987 -1.5,-2.169 -1.83,-3.447l-0.35,-0.861h-0.48c-0.23,0.017 -0.46,0.071 -0.67,0.161h-0.27v7.64h0.45c1.82,0.605 3.7,1.02 5.6,1.238h2.69c1.17,0.086 2.34,-0.024 3.47,-0.323c1.44,-0.265 2.78,-0.901 3.89,-1.845c1.11,-0.944 1.96,-2.163 2.46,-3.535c0.32,-0.767 0.48,-1.59 0.48,-2.422c0.11,-1.171 -0.1,-2.349 -0.59,-3.416zM946.673,28.4731c-1.61,-0.677 -3.35,-1.005 -5.1,-0.963c-1.75,0.042 -3.47,0.452 -5.04,1.205c-1.49,0.726 -2.8,1.754 -3.86,3.019c-1.06,1.265 -1.85,2.739 -2.3,4.326c-0.59,1.731 -0.83,3.557 -0.73,5.38c-0.02,0.992 0.06,1.984 0.24,2.959c0.44,2.4 1.59,4.608 3.32,6.33c1.73,1.722 3.94,2.874 6.34,3.302c1.56,0.196 3.14,0.196 4.71,0c1.62,-0.286 3.17,-0.88 4.57,-1.749c1.16,-0.649 2.14,-1.573 2.85,-2.69c-0.04,-0.176 -0.12,-0.34 -0.23,-0.483c-0.12,-0.144 -0.25,-0.263 -0.41,-0.351c-0.31,0.111 -0.6,0.265 -0.86,0.457c-1.34,0.882 -2.92,1.324 -4.52,1.264c-1.07,0.072 -2.13,-0.093 -3.12,-0.484c-0.99,-0.391 -1.89,-0.997 -2.61,-1.775c-0.57,-0.523 -1.03,-1.143 -1.38,-1.83c-0.83,-1.672 -1.28,-3.511 -1.31,-5.38v-1.049h14.9v-0.538c0.03,-0.538 0.03,-1.077 0,-1.615c0,-1.899 -0.51,-3.763 -1.47,-5.403c-0.96,-1.64 -2.34,-2.996 -3.99,-3.932zM939.163,37.7811h-1.88v-1.587c0.62,-4.062 2.15,-6.483 4.04,-6.483c1.88,0 2.69,2.394 3.04,6.779v1.238h-1.62zM900.483,27.5851c-0.93,-0.036 -1.86,0.158 -2.69,0.565c-1.82,0.883 -3.29,2.352 -4.17,4.17l-0.35,0.646v-5.381h-0.14c-0.32,0 -10.27,1.991 -10.6,2.126c-0.32,0.134 -0.21,0.161 -0.21,0.645c0,0.485 0,0.565 0.21,0.592l1.05,0.215c0.3,0.008 0.59,0.082 0.85,0.217c0.26,0.135 0.48,0.328 0.66,0.564c0.67,0.887 0.81,2.448 0.81,9.093c0.13,2.991 0,5.988 -0.38,8.958c-0.09,0.448 -0.32,0.857 -0.65,1.17c-0.33,0.313 -0.75,0.515 -1.21,0.579l-0.91,0.188h-0.35v0.753c-0.1,0.251 -0.1,0.53 0,0.781h15.04v-0.781c0.05,-0.257 0.05,-0.522 0,-0.78c-0.91,-0.035 -1.81,-0.152 -2.69,-0.35c-0.48,-0.251 -0.88,-0.643 -1.13,-1.124c-0.26,-0.48 -0.36,-1.026 -0.3,-1.566c-0.21,-1.56 -0.32,-6.133 -0.27,-9.631c0.06,-3.497 0,-3.712 0.3,-3.954c0.9,-0.691 2.01,-1.043 3.15,-0.996c1.06,0.023 2.11,0.29 3.06,0.78c0.33,0.183 0.69,0.319 1.05,0.404c0,0 2.69,-6.511 2.69,-6.806c-0.34,-0.4 -0.78,-0.708 -1.27,-0.896c-0.5,-0.188 -1.03,-0.25 -1.55,-0.181zM882.353,38.8841c-0.1,-1.922 -0.65,-3.794 -1.61,-5.46c-0.97,-1.666 -2.316,-3.077 -3.936,-4.117c-1.925,-1.038 -4.067,-1.611 -6.254,-1.672c-2.186,-0.06 -4.357,0.392 -6.337,1.322c-2.799,1.477 -4.912,3.986 -5.891,6.995c-1.011,3.369 -1.011,6.961 0,10.331c0.53,1.841 1.521,3.517 2.878,4.869c1.691,1.65 3.872,2.707 6.215,3.013c1.504,0.126 3.015,0.126 4.519,0c0.554,-0.084 1.102,-0.201 1.641,-0.35c2.19,-0.612 4.16,-1.836 5.68,-3.527c1.515,-1.691 2.525,-3.781 2.905,-6.023c0.27,-1.78 0.33,-3.586 0.19,-5.381zM871.157,52.3361c-2.69,0.807 -4.708,-1.803 -5.38,-7.291c-0.247,-2.873 -0.247,-5.762 0,-8.636c0.538,-4.412 1.91,-6.644 4.035,-6.644c0.429,-0.027 0.858,0.049 1.251,0.223c0.393,0.173 0.739,0.438 1.009,0.772c1.802,1.802 2.69,5.38 2.69,10.761c0.224,3.045 -0.255,6.101 -1.399,8.932c-0.505,0.825 -1.287,1.445 -2.206,1.748zM919.583,28.1241c-0.76,-0.098 -1.53,-0.098 -2.29,0c-1.46,-0.002 -2.9,0.31 -4.22,0.914l-0.84,0.35v-5.838c0.15,-1.97 0.15,-3.948 0,-5.918c-0.32,0 -10.6,1.963 -10.76,2.044c-0.08,0.199 -0.08,0.42 0,0.619c0,0.565 0,0.538 1.21,0.807c0.34,0.076 0.67,0.203 0.97,0.377c0.53,0.493 0.88,1.145 1,1.856c0.3,2.047 0.4,4.12 0.29,6.187v23.621l0.73,0.161c1.08,0.242 4.12,0.753 5.11,0.861c1.99,0.158 3.99,0.158 5.97,0c2.21,-0.225 4.31,-1.048 6.09,-2.381c1.77,-1.332 3.14,-3.122 3.98,-5.179c0.49,-1.319 0.83,-2.691 1.02,-4.089c0.16,-1.893 0.09,-3.798 -0.19,-5.676c-0.29,-2.105 -1.22,-4.071 -2.66,-5.63c-1.45,-1.56 -3.33,-2.637 -5.41,-3.086zM912.533,51.8781c0,-0.349 -0.27,-12.133 -0.22,-16.841v-3.685l0.79,-0.189c0.52,-0.075 1.06,-0.075 1.58,0c0.58,-0.059 1.17,0.074 1.67,0.377c1,0.694 1.84,1.606 2.44,2.668c0.6,1.063 0.95,2.248 1.03,3.466c0.2,1.959 0.2,3.933 0,5.891c-0.16,2.848 -1.26,5.562 -3.12,7.721c-0.53,0.503 -1.19,0.839 -1.91,0.969c-0.54,0.094 -1.1,0.094 -1.64,0c-0.51,0 -0.51,-0.161 -0.51,-0.377z" data-node-id="I1:489;20:528"/></g><g id="TechCrunch_logo" clip-path="url(#clip4_1_116)" data-node-id="1:490"><path id="Vector_41" fill="#7A7A7A" d="M1145.133,8.7161v18.166h-18.17v36.334h-18.16v-36.334h-18.17v-18.166z" data-node-id="I1:490;20:511"/><path id="Vector_42" fill="#7A7A7A" d="M1199.633,8.7161h-36.33v18.166h36.33z" data-node-id="I1:490;20:512"/><path id="Vector_43" fill="#7A7A7A" d="M1199.633,45.0491v18.167h-54.5v-36.334h18.17v18.167z" data-node-id="I1:490;20:513"/></g></g></svg>