<svg viewBox="0 0 478.995 67.07" x="0" y="0" fill="none" xmlns="http://www.w3.org/2000/svg"><defs><clipPath id="clip13_1_116" xmlns="http://www.w3.org/2000/svg"><rect width="223" height="66.0737" fill="white" transform="translate(255.5, 0.5)"/></clipPath></defs><g id="Frame 41" data-node-id="1:719" xmlns="http://www.w3.org/2000/svg"><g id="Group_8" data-node-id="1:720"><path id="Vector_112" data-node-id="1:721" d="M215.566,66.57h-207.254c-4.307,0 -7.812,-3.51 -7.812,-7.81v-50.45c0,-4.31 3.505,-7.81 7.812,-7.81h207.254c4.305,0 7.934,3.5 7.934,7.81v50.45c0,4.3 -3.629,7.81 -7.934,7.81z" fill="#A6A6A6"/><path id="Vector_113" data-node-id="1:722" d="M221.901,58.76c0,3.49 -2.831,6.32 -6.333,6.32h-207.256c-3.501,0 -6.342,-2.83 -6.342,-6.32v-50.46c0,-3.49 2.841,-6.33 6.342,-6.33h207.254c3.504,0 6.333,2.84 6.333,6.33z" fill="black"/><g id="Group_9" data-node-id="1:723"><g id="Group_10" data-node-id="1:724"><path id="Vector_114" data-node-id="1:725" d="M50.267,33.18c-0.048,-5.32 4.359,-7.91 4.561,-8.03c-2.496,-3.64 -6.365,-4.14 -7.724,-4.18c-3.249,-0.34 -6.401,1.94 -8.056,1.94c-1.689,0 -4.237,-1.91 -6.984,-1.85c-3.535,0.05 -6.842,2.1 -8.656,5.28c-3.743,6.48 -0.952,16 2.635,21.24c1.794,2.56 3.89,5.43 6.633,5.33c2.685,-0.11 3.687,-1.71 6.927,-1.71c3.209,0 4.151,1.71 6.949,1.64c2.881,-0.04 4.695,-2.57 6.426,-5.16c2.073,-2.94 2.905,-5.84 2.938,-5.99c-0.067,-0.02 -5.594,-2.13 -5.649,-8.51z" fill="white"/><path id="Vector_115" data-node-id="1:726" d="M44.981,17.52c1.444,-1.8 2.432,-4.26 2.157,-6.75c-2.089,0.09 -4.702,1.44 -6.207,3.21c-1.332,1.56 -2.521,4.11 -2.214,6.51c2.348,0.17 4.758,-1.19 6.264,-2.97z" fill="white"/></g></g><g id="Group_11" data-node-id="1:727"><path id="Vector_116" data-node-id="1:728" d="M89.114,52.54h-3.752l-2.055,-6.46h-7.142l-1.958,6.46h-3.652l7.077,-21.98h4.37zM82.688,43.37l-1.858,-5.74c-0.197,-0.58 -0.565,-1.96 -1.109,-4.14h-0.066c-0.216,0.94 -0.565,2.32 -1.044,4.14l-1.825,5.74z" fill="white"/><path id="Vector_117" data-node-id="1:729" d="M107.312,44.42c0,2.7 -0.728,4.83 -2.185,6.39c-1.305,1.39 -2.926,2.09 -4.86,2.09c-2.088,0 -3.588,-0.75 -4.501,-2.25h-0.066v8.35h-3.522v-17.09c0,-1.7 -0.045,-3.44 -0.131,-5.22h3.098l0.196,2.51h0.066c1.175,-1.89 2.957,-2.84 5.349,-2.84c1.87,0 3.431,0.74 4.68,2.22c1.252,1.48 1.876,3.43 1.876,5.84zM103.724,44.55c0,-1.54 -0.347,-2.82 -1.044,-3.82c-0.761,-1.04 -1.784,-1.56 -3.066,-1.56c-0.868,0 -1.658,0.29 -2.363,0.86c-0.707,0.58 -1.17,1.33 -1.386,2.27c-0.109,0.43 -0.164,0.79 -0.164,1.07v2.65c0,1.15 0.354,2.12 1.061,2.92c0.707,0.79 1.625,1.19 2.755,1.19c1.326,0 2.359,-0.52 3.097,-1.54c0.74,-1.02 1.11,-2.37 1.11,-4.04z" fill="white"/><path id="Vector_118" data-node-id="1:730" d="M125.544,44.42c0,2.7 -0.729,4.83 -2.188,6.39c-1.303,1.39 -2.923,2.09 -4.858,2.09c-2.088,0 -3.587,-0.75 -4.499,-2.25h-0.066v8.35h-3.522v-17.09c0,-1.7 -0.045,-3.44 -0.131,-5.22h3.098l0.196,2.51h0.066c1.173,-1.89 2.955,-2.84 5.349,-2.84c1.868,0 3.429,0.74 4.681,2.22c1.247,1.48 1.874,3.43 1.874,5.84zM121.956,44.55c0,-1.54 -0.349,-2.82 -1.046,-3.82c-0.761,-1.04 -1.781,-1.56 -3.064,-1.56c-0.871,0 -1.659,0.29 -2.366,0.86c-0.707,0.58 -1.167,1.33 -1.384,2.27c-0.107,0.43 -0.163,0.79 -0.163,1.07v2.65c0,1.15 0.353,2.12 1.057,2.92c0.707,0.79 1.625,1.19 2.758,1.19c1.327,0 2.359,-0.52 3.098,-1.54c0.74,-1.02 1.11,-2.37 1.11,-4.04z" fill="white"/><path id="Vector_119" data-node-id="1:731" d="M145.927,46.38c0,1.87 -0.649,3.39 -1.952,4.56c-1.432,1.28 -3.426,1.93 -5.988,1.93c-2.366,0 -4.262,-0.46 -5.697,-1.37l0.816,-2.94c1.546,0.94 3.242,1.4 5.091,1.4c1.326,0 2.359,-0.3 3.1,-0.89c0.739,-0.6 1.107,-1.4 1.107,-2.41c0,-0.89 -0.304,-1.64 -0.914,-2.25c-0.606,-0.61 -1.618,-1.17 -3.032,-1.7c-3.849,-1.43 -5.772,-3.54 -5.772,-6.3c0,-1.81 0.674,-3.29 2.024,-4.44c1.344,-1.16 3.138,-1.74 5.381,-1.74c2.001,0 3.663,0.35 4.989,1.05l-0.88,2.87c-1.239,-0.67 -2.64,-1.01 -4.208,-1.01c-1.239,0 -2.207,0.3 -2.9,0.91c-0.587,0.55 -0.881,1.21 -0.881,1.99c0,0.87 0.335,1.59 1.009,2.16c0.587,0.52 1.652,1.08 3.198,1.69c1.892,0.76 3.281,1.65 4.175,2.67c0.89,1.02 1.334,2.3 1.334,3.82z" fill="white"/><path id="Vector_120" data-node-id="1:732" d="M157.571,39.33h-3.882v7.7c0,1.96 0.684,2.93 2.055,2.93c0.63,0 1.152,-0.05 1.565,-0.16l0.097,2.67c-0.694,0.26 -1.607,0.39 -2.739,0.39c-1.391,0 -2.477,-0.42 -3.262,-1.27c-0.781,-0.85 -1.175,-2.27 -1.175,-4.27v-7.99h-2.312v-2.64h2.312v-2.91l3.459,-1.04v3.95h3.882z" fill="white"/><path id="Vector_121" data-node-id="1:733" d="M175.086,44.48c0,2.44 -0.697,4.44 -2.088,6.01c-1.459,1.61 -3.395,2.41 -5.808,2.41c-2.326,0 -4.178,-0.77 -5.558,-2.32c-1.381,-1.54 -2.072,-3.49 -2.072,-5.83c0,-2.46 0.71,-4.47 2.136,-6.04c1.422,-1.56 3.342,-2.35 5.755,-2.35c2.326,0 4.197,0.78 5.61,2.32c1.351,1.5 2.025,3.43 2.025,5.8zM171.432,44.6c0,-1.46 -0.312,-2.72 -0.945,-3.76c-0.738,-1.27 -1.794,-1.9 -3.162,-1.9c-1.415,0 -2.491,0.63 -3.229,1.9c-0.633,1.04 -0.945,2.32 -0.945,3.82c0,1.47 0.312,2.72 0.945,3.76c0.762,1.27 1.825,1.9 3.198,1.9c1.345,0 2.4,-0.64 3.162,-1.93c0.649,-1.06 0.976,-2.33 0.976,-3.79z" fill="white"/><path id="Vector_122" data-node-id="1:734" d="M186.533,39.79c-0.348,-0.07 -0.72,-0.1 -1.11,-0.1c-1.239,0 -2.197,0.47 -2.871,1.4c-0.586,0.83 -0.88,1.87 -0.88,3.13v8.32h-3.52l0.033,-10.86c0,-1.83 -0.045,-3.49 -0.132,-4.99h3.067l0.129,3.03h0.097c0.372,-1.04 0.959,-1.88 1.761,-2.51c0.785,-0.56 1.632,-0.85 2.546,-0.85c0.325,0 0.619,0.03 0.88,0.07z" fill="white"/><path id="Vector_123" data-node-id="1:735" d="M202.284,43.86c0,0.64 -0.042,1.17 -0.129,1.6h-10.565c0.041,1.57 0.551,2.77 1.532,3.59c0.891,0.74 2.042,1.11 3.456,1.11c1.564,0 2.992,-0.25 4.275,-0.75l0.552,2.44c-1.5,0.66 -3.271,0.98 -5.314,0.98c-2.458,0 -4.387,-0.72 -5.792,-2.16c-1.4,-1.45 -2.102,-3.39 -2.102,-5.83c0,-2.39 0.652,-4.38 1.959,-5.96c1.367,-1.7 3.216,-2.55 5.542,-2.55c2.284,0 4.014,0.85 5.188,2.55c0.93,1.34 1.398,3.01 1.398,4.98zM198.925,42.95c0.024,-1.04 -0.206,-1.94 -0.683,-2.71c-0.61,-0.98 -1.547,-1.46 -2.807,-1.46c-1.151,0 -2.088,0.47 -2.803,1.43c-0.587,0.76 -0.935,1.68 -1.042,2.74h7.335z" fill="white"/></g><g id="Group_12" data-node-id="1:736"><g id="Group_13" data-node-id="1:737"><path id="Vector_124" data-node-id="1:738" d="M81.523,17.03c0,1.95 -0.583,3.41 -1.747,4.39c-1.079,0.91 -2.612,1.37 -4.597,1.37c-0.985,0 -1.827,-0.05 -2.533,-0.13v-10.63c0.92,-0.15 1.911,-0.22 2.982,-0.22c1.891,0 3.317,0.41 4.278,1.23c1.077,0.93 1.617,2.26 1.617,3.99zM79.698,17.08c0,-1.26 -0.334,-2.23 -1.001,-2.9c-0.667,-0.67 -1.642,-1.01 -2.925,-1.01c-0.546,0 -1.01,0.04 -1.395,0.11v8.08c0.214,0.03 0.603,0.05 1.17,0.05c1.325,0 2.347,-0.37 3.067,-1.11c0.721,-0.73 1.084,-1.81 1.084,-3.22z" fill="white"/><path id="Vector_125" data-node-id="1:739" d="M91.202,18.73c0,1.2 -0.342,2.18 -1.026,2.95c-0.717,0.79 -1.667,1.19 -2.853,1.19c-1.143,0 -2.053,-0.38 -2.732,-1.14c-0.677,-0.76 -1.016,-1.72 -1.016,-2.87c0,-1.21 0.348,-2.19 1.049,-2.96c0.7,-0.77 1.642,-1.16 2.828,-1.16c1.143,0 2.061,0.38 2.757,1.14c0.661,0.74 0.993,1.69 0.993,2.85zM89.406,18.79c0,-0.72 -0.155,-1.34 -0.464,-1.85c-0.364,-0.62 -0.881,-0.93 -1.553,-0.93c-0.695,0 -1.224,0.31 -1.587,0.93c-0.311,0.51 -0.465,1.14 -0.465,1.88c0,0.72 0.156,1.33 0.465,1.85c0.375,0.62 0.897,0.93 1.571,0.93c0.66,0 1.179,-0.32 1.552,-0.95c0.321,-0.52 0.481,-1.14 0.481,-1.86z" fill="white"/><path id="Vector_126" data-node-id="1:740" d="M104.178,14.9l-2.436,7.79h-1.586l-1.009,-3.38c-0.256,-0.85 -0.464,-1.69 -0.626,-2.52h-0.032c-0.15,0.86 -0.358,1.7 -0.626,2.52l-1.072,3.38h-1.604l-2.291,-7.79h1.779l0.881,3.7c0.213,0.88 0.388,1.71 0.528,2.5h0.032c0.129,-0.65 0.342,-1.48 0.642,-2.48l1.105,-3.72h1.411l1.059,3.64c0.256,0.89 0.464,1.74 0.624,2.57h0.048c0.118,-0.81 0.294,-1.66 0.529,-2.57l0.945,-3.64h1.699z" fill="white"/><path id="Vector_127" data-node-id="1:741" d="M113.153,22.69h-1.731v-4.46c0,-1.37 -0.522,-2.06 -1.569,-2.06c-0.514,0 -0.929,0.19 -1.251,0.56c-0.319,0.38 -0.481,0.83 -0.481,1.34v4.62h-1.731v-5.56c0,-0.69 -0.021,-1.43 -0.062,-2.23h1.521l0.081,1.22h0.048c0.201,-0.38 0.502,-0.69 0.897,-0.94c0.469,-0.29 0.994,-0.44 1.569,-0.44c0.727,0 1.331,0.23 1.812,0.7c0.598,0.58 0.897,1.44 0.897,2.58z" fill="white"/><path id="Vector_128" data-node-id="1:742" d="M117.927,22.69h-1.73v-11.36h1.73z" fill="white"/><path id="Vector_129" data-node-id="1:743" d="M128.119,18.73c0,1.2 -0.342,2.18 -1.026,2.95c-0.717,0.79 -1.668,1.19 -2.853,1.19c-1.144,0 -2.055,-0.38 -2.732,-1.14c-0.677,-0.76 -1.016,-1.72 -1.016,-2.87c0,-1.21 0.349,-2.19 1.049,-2.96c0.701,-0.77 1.642,-1.16 2.826,-1.16c1.145,0 2.062,0.38 2.759,1.14c0.661,0.74 0.993,1.69 0.993,2.85zM126.322,18.79c0,-0.72 -0.156,-1.34 -0.465,-1.85c-0.361,-0.62 -0.88,-0.93 -1.551,-0.93c-0.697,0 -1.225,0.31 -1.587,0.93c-0.311,0.51 -0.464,1.14 -0.464,1.88c0,0.72 0.155,1.33 0.464,1.85c0.375,0.62 0.897,0.93 1.571,0.93c0.661,0 1.178,-0.32 1.551,-0.95c0.322,-0.52 0.481,-1.14 0.481,-1.86z" fill="white"/><path id="Vector_130" data-node-id="1:744" d="M136.497,22.69h-1.554l-0.129,-0.9h-0.048c-0.532,0.72 -1.29,1.08 -2.275,1.08c-0.735,0 -1.33,-0.24 -1.777,-0.71c-0.407,-0.43 -0.61,-0.96 -0.61,-1.58c0,-0.96 0.397,-1.68 1.195,-2.18c0.796,-0.51 1.916,-0.75 3.358,-0.74v-0.15c0,-1.02 -0.539,-1.53 -1.617,-1.53c-0.768,0 -1.446,0.19 -2.03,0.57l-0.352,-1.13c0.723,-0.45 1.617,-0.68 2.671,-0.68c2.035,0 3.056,1.08 3.056,3.23v2.86c0,0.78 0.038,1.4 0.112,1.86zM134.7,20.01v-1.2c-1.91,-0.03 -2.865,0.49 -2.865,1.57c0,0.41 0.109,0.71 0.332,0.92c0.223,0.2 0.508,0.3 0.846,0.3c0.38,0 0.735,-0.12 1.059,-0.36c0.325,-0.24 0.525,-0.55 0.6,-0.92c0.018,-0.09 0.028,-0.19 0.028,-0.31z" fill="white"/><path id="Vector_131" data-node-id="1:745" d="M146.334,22.69h-1.537l-0.08,-1.25h-0.048c-0.491,0.95 -1.327,1.43 -2.501,1.43c-0.939,0 -1.72,-0.37 -2.339,-1.11c-0.62,-0.74 -0.929,-1.69 -0.929,-2.87c0,-1.26 0.336,-2.28 1.01,-3.06c0.652,-0.72 1.452,-1.09 2.403,-1.09c1.046,0 1.778,0.35 2.194,1.06h0.033v-4.47h1.733v9.26c0,0.76 0.019,1.46 0.061,2.1zM144.54,19.41v-1.3c0,-0.23 -0.017,-0.41 -0.048,-0.55c-0.098,-0.41 -0.307,-0.76 -0.626,-1.05c-0.322,-0.28 -0.71,-0.42 -1.158,-0.42c-0.646,0 -1.151,0.25 -1.523,0.77c-0.368,0.51 -0.555,1.17 -0.555,1.97c0,0.77 0.177,1.39 0.532,1.87c0.375,0.52 0.88,0.77 1.513,0.77c0.568,0 1.022,-0.21 1.368,-0.64c0.333,-0.39 0.497,-0.87 0.497,-1.42z" fill="white"/><path id="Vector_132" data-node-id="1:746" d="M161.139,18.73c0,1.2 -0.342,2.18 -1.026,2.95c-0.716,0.79 -1.665,1.19 -2.852,1.19c-1.142,0 -2.052,-0.38 -2.732,-1.14c-0.678,-0.76 -1.016,-1.72 -1.016,-2.87c0,-1.21 0.348,-2.19 1.049,-2.96c0.7,-0.77 1.642,-1.16 2.829,-1.16c1.142,0 2.062,0.38 2.756,1.14c0.66,0.74 0.992,1.69 0.992,2.85zM159.345,18.79c0,-0.72 -0.155,-1.34 -0.464,-1.85c-0.365,-0.62 -0.88,-0.93 -1.554,-0.93c-0.694,0 -1.223,0.31 -1.588,0.93c-0.31,0.51 -0.464,1.14 -0.464,1.88c0,0.72 0.155,1.33 0.464,1.85c0.375,0.62 0.897,0.93 1.571,0.93c0.661,0 1.181,-0.32 1.555,-0.95c0.319,-0.52 0.48,-1.14 0.48,-1.86z" fill="white"/><path id="Vector_133" data-node-id="1:747" d="M170.448,22.69h-1.73v-4.46c0,-1.37 -0.522,-2.06 -1.571,-2.06c-0.514,0 -0.928,0.19 -1.249,0.56c-0.32,0.38 -0.48,0.83 -0.48,1.34v4.62h-1.733v-5.56c0,-0.69 -0.02,-1.43 -0.061,-2.23h1.519l0.081,1.22h0.048c0.203,-0.38 0.504,-0.69 0.897,-0.94c0.471,-0.29 0.995,-0.44 1.571,-0.44c0.725,0 1.33,0.23 1.811,0.7c0.599,0.58 0.897,1.44 0.897,2.58z" fill="white"/><path id="Vector_134" data-node-id="1:748" d="M182.098,16.2h-1.906v3.78c0,0.96 0.338,1.44 1.009,1.44c0.311,0 0.568,-0.02 0.771,-0.08l0.045,1.32c-0.342,0.13 -0.791,0.19 -1.345,0.19c-0.683,0 -1.215,-0.21 -1.6,-0.62c-0.387,-0.42 -0.578,-1.12 -0.578,-2.1v-3.93h-1.138v-1.3h1.138v-1.42l1.696,-0.52v1.94h1.906v1.3z" fill="white"/><path id="Vector_135" data-node-id="1:749" d="M191.262,22.69h-1.732v-4.43c0,-1.39 -0.522,-2.09 -1.568,-2.09c-0.803,0 -1.351,0.4 -1.652,1.21c-0.051,0.17 -0.081,0.38 -0.081,0.62v4.69h-1.729v-11.36h1.729v4.69h0.033c0.545,-0.85 1.327,-1.28 2.339,-1.28c0.717,0 1.31,0.24 1.781,0.71c0.586,0.58 0.88,1.46 0.88,2.61z" fill="white"/><path id="Vector_136" data-node-id="1:750" d="M200.716,18.43c0,0.31 -0.023,0.57 -0.064,0.78h-5.192c0.023,0.77 0.271,1.36 0.751,1.76c0.44,0.37 1.006,0.55 1.7,0.55c0.768,0 1.469,-0.12 2.1,-0.37l0.271,1.2c-0.739,0.32 -1.608,0.48 -2.614,0.48c-1.206,0 -2.155,-0.35 -2.843,-1.06c-0.69,-0.71 -1.032,-1.66 -1.032,-2.86c0,-1.17 0.319,-2.15 0.961,-2.93c0.671,-0.83 1.578,-1.25 2.723,-1.25c1.12,0 1.97,0.42 2.545,1.25c0.464,0.66 0.694,1.48 0.694,2.45zM199.064,17.98c0.013,-0.51 -0.101,-0.96 -0.335,-1.33c-0.301,-0.48 -0.758,-0.72 -1.378,-0.72c-0.565,0 -1.026,0.23 -1.377,0.7c-0.288,0.38 -0.458,0.83 -0.514,1.35z" fill="white"/></g></g></g><g id="Google_Play_Store_badge_EN" data-node-id="1:751" clip-path="url(#clip13_1_116)"><path id="path11" data-node-id="1:752" d="M470.236,66.57h-206.473c-4.543,0 -8.26,-3.71 -8.26,-8.26v-49.55c0,-4.54 3.717,-8.26 8.26,-8.26h206.473c4.542,0 8.259,3.72 8.259,8.26v49.55c0,4.55 -3.717,8.26 -8.259,8.26z" fill="#100F0D"/><path id="path13" data-node-id="1:753" d="M470.236,0.5h-206.473c-4.543,0 -8.26,3.72 -8.26,8.26v49.55c0,4.55 3.717,8.26 8.26,8.26h206.473c4.542,0 8.259,-3.71 8.259,-8.26v-49.55c0,-4.54 -3.717,-8.26 -8.259,-8.26zM470.236,1.82c3.825,0 6.937,3.11 6.937,6.94v49.55c0,3.83 -3.112,6.94 -6.937,6.94h-206.473c-3.826,0 -6.937,-3.11 -6.937,-6.94v-49.55c0,-3.83 3.111,-6.94 6.937,-6.94z" fill="#A2A2A1"/><path id="path35" data-node-id="1:754" d="M432.141,50.06h3.082v-20.66h-3.082zM459.903,36.84l-3.533,8.96h-0.106l-3.667,-8.96h-3.32l5.501,12.52l-3.137,6.96h3.214l8.476,-19.48zM442.422,47.71c-1.007,0 -2.416,-0.51 -2.416,-1.75c0,-1.6 1.754,-2.21 3.267,-2.21c1.355,0 1.994,0.29 2.816,0.69c-0.239,1.91 -1.886,3.27 -3.667,3.27zM442.796,36.39c-2.232,0 -4.543,0.99 -5.499,3.16l2.735,1.15c0.585,-1.15 1.673,-1.52 2.817,-1.52c1.593,0 3.214,0.96 3.24,2.66v0.21c-0.558,-0.32 -1.754,-0.8 -3.214,-0.8c-2.95,0 -5.952,1.62 -5.952,4.65c0,2.77 2.419,4.55 5.128,4.55c2.071,0 3.216,-0.93 3.931,-2.02h0.107v1.59h2.977v-7.92c0,-3.66 -2.739,-5.71 -6.27,-5.71zM423.746,39.36h-4.383v-7.08h4.383c2.305,0 3.613,1.91 3.613,3.54c0,1.6 -1.308,3.54 -3.613,3.54zM423.667,29.4h-7.385v20.66h3.081v-7.83h4.304c3.416,0 6.774,-2.47 6.774,-6.41c0,-3.94 -3.358,-6.41 -6.774,-6.41zM383.395,47.71c-2.13,0 -3.912,-1.78 -3.912,-4.23c0,-2.47 1.782,-4.28 3.912,-4.28c2.102,0 3.752,1.81 3.752,4.28c0,2.45 -1.65,4.23 -3.752,4.23zM386.934,38h-0.107c-0.691,-0.82 -2.023,-1.57 -3.698,-1.57c-3.514,0 -6.733,3.09 -6.733,7.05c0,3.94 3.219,7 6.733,7c1.675,0 3.007,-0.74 3.698,-1.6h0.107v1.01c0,2.69 -1.437,4.13 -3.752,4.13c-1.889,0 -3.06,-1.36 -3.539,-2.5l-2.688,1.12c0.771,1.86 2.82,4.15 6.227,4.15c3.62,0 6.68,-2.13 6.68,-7.32v-12.61h-2.928zM391.991,50.05h3.086v-20.65h-3.086zM399.628,43.24c-0.08,-2.71 2.103,-4.1 3.672,-4.1c1.225,0 2.262,0.62 2.609,1.49zM409.208,40.9c-0.586,-1.57 -2.368,-4.47 -6.014,-4.47c-3.62,0 -6.627,2.85 -6.627,7.03c0,3.93 2.981,7.02 6.972,7.02c3.22,0 5.083,-1.97 5.856,-3.11l-2.396,-1.6c-0.798,1.17 -1.889,1.94 -3.46,1.94c-1.569,0 -2.687,-0.72 -3.405,-2.13l9.393,-3.88zM334.367,38.59v2.98h7.132c-0.213,1.67 -0.772,2.9 -1.623,3.75c-1.038,1.04 -2.662,2.18 -5.509,2.18c-4.391,0 -7.823,-3.54 -7.823,-7.93c0,-4.39 3.432,-7.93 7.823,-7.93c2.369,0 4.098,0.93 5.376,2.13l2.103,-2.1c-1.784,-1.71 -4.152,-3.01 -7.479,-3.01c-6.015,0 -11.071,4.9 -11.071,10.91c0,6.01 5.056,10.91 11.071,10.91c3.246,0 5.695,-1.06 7.611,-3.06c1.969,-1.97 2.581,-4.74 2.581,-6.97c0,-0.69 -0.053,-1.33 -0.16,-1.86zM352.668,47.71c-2.129,0 -3.965,-1.75 -3.965,-4.25c0,-2.53 1.836,-4.26 3.965,-4.26c2.129,0 3.965,1.73 3.965,4.26c0,2.5 -1.836,4.25 -3.965,4.25zM352.668,36.43c-3.886,0 -7.052,2.95 -7.052,7.03c0,4.04 3.166,7.02 7.052,7.02c3.885,0 7.052,-2.98 7.052,-7.02c0,-4.08 -3.167,-7.03 -7.052,-7.03zM368.052,47.71c-2.128,0 -3.965,-1.75 -3.965,-4.25c0,-2.53 1.837,-4.26 3.965,-4.26c2.129,0 3.965,1.73 3.965,4.26c0,2.5 -1.836,4.25 -3.965,4.25zM368.052,36.43c-3.885,0 -7.052,2.95 -7.052,7.03c0,4.04 3.167,7.02 7.052,7.02c3.886,0 7.052,-2.98 7.052,-7.02c0,-4.08 -3.166,-7.03 -7.052,-7.03z" fill="white"/><path id="path37" data-node-id="1:755" d="M289.721,32.59l-17.585,18.66l0.002,0.01c0.54,2.03 2.391,3.52 4.588,3.52c0.878,0 1.703,-0.24 2.41,-0.65l0.056,-0.04l19.795,-11.42l-9.266,-10.08" fill="#EB3131"/><path id="path39" data-node-id="1:756" d="M307.512,29.41l-0.017,-0.01l-8.546,-4.96l-9.628,8.57l9.662,9.66l8.501,-4.9c1.49,-0.81 2.502,-2.38 2.502,-4.19c0,-1.8 -0.998,-3.36 -2.474,-4.17" fill="#F6B60B"/><path id="path41" data-node-id="1:757" d="M272.133,15.83c-0.105,0.38 -0.161,0.79 -0.161,1.22v32.98c0,0.42 0.055,0.83 0.162,1.22l18.192,-18.19l-18.192,-17.23" fill="#5778C5"/><path id="path43" data-node-id="1:758" d="M289.851,33.54l9.102,-9.1l-19.773,-11.46c-0.718,-0.44 -1.557,-0.68 -2.455,-0.68c-2.197,0 -4.05,1.49 -4.59,3.52c0,0 0,0 0,0.01l17.716,17.71" fill="#3BAD49"/><path id="path33" data-node-id="1:759" d="M333.789,16.66h-4.819v1.19h3.611c-0.098,0.97 -0.485,1.74 -1.138,2.29c-0.653,0.56 -1.487,0.84 -2.473,0.84c-1.081,0 -1.997,-0.38 -2.748,-1.13c-0.736,-0.76 -1.11,-1.71 -1.11,-2.85c0,-1.13 0.374,-2.08 1.11,-2.84c0.751,-0.75 1.667,-1.13 2.748,-1.13c0.555,0 1.085,0.1 1.57,0.31c0.485,0.21 0.875,0.5 1.179,0.87l0.916,-0.91c-0.415,-0.47 -0.942,-0.84 -1.595,-1.1c-0.653,-0.26 -1.334,-0.39 -2.07,-0.39c-1.442,0 -2.666,0.5 -3.665,1.5c-0.998,1 -1.499,2.24 -1.499,3.69c0,1.46 0.501,2.7 1.499,3.7c0.999,1 2.223,1.5 3.665,1.5c1.515,0 2.723,-0.49 3.652,-1.47c0.819,-0.83 1.237,-1.94 1.237,-3.32c0,-0.24 -0.029,-0.49 -0.07,-0.75zM335.656,12.03v9.94h5.804v-1.22h-4.527v-3.15h4.084v-1.19h-4.084v-3.15h4.527v-1.23zM349.6,13.26v-1.23h-6.832v1.23h2.777v8.71h1.277v-8.71zM355.785,12.03h-1.278v9.94h1.278zM364.217,13.26v-1.23h-6.831v1.23h2.777v8.71h1.277v-8.71zM377.109,13.33c-0.986,-1.02 -2.194,-1.52 -3.636,-1.52c-1.446,0 -2.653,0.5 -3.64,1.5c-0.985,0.99 -1.471,2.22 -1.471,3.69c0,1.47 0.486,2.71 1.471,3.7c0.986,1 2.194,1.5 3.64,1.5c1.429,0 2.65,-0.5 3.636,-1.5c0.986,-0.99 1.471,-2.23 1.471,-3.7c0,-1.45 -0.485,-2.69 -1.471,-3.67zM370.75,14.16c0.735,-0.75 1.639,-1.13 2.723,-1.13c1.081,0 1.984,0.38 2.707,1.13c0.736,0.73 1.097,1.69 1.097,2.84c0,1.16 -0.361,2.11 -1.097,2.85c-0.723,0.75 -1.626,1.13 -2.707,1.13c-1.084,0 -1.988,-0.38 -2.723,-1.13c-0.72,-0.75 -1.082,-1.69 -1.082,-2.85c0,-1.15 0.362,-2.09 1.082,-2.84zM381.616,15.78l-0.055,-1.91h0.055l5.053,8.1h1.334v-9.94h-1.277v5.82l0.054,1.92h-0.054l-4.832,-7.74h-1.556v9.94h1.278z" fill="white" stroke="white" stroke-width="0.26666" stroke-miterlimit="10"/></g></g></svg>